%TF.GenerationSoftware,Altium Limited,DefaultClient, ()*%
G04 Layer_Physical_Order=2*
G04 Layer_Color=36540*
G04 Board_Origin=15870000|8490000*
%FSLAX26Y26*%
%MOIN*%
%TF.SameCoordinates,E7EB6890-D8AB-412E-85C4-2B4BF1934679*%
%TF.FilePolarity,Positive*%
%TF.FileFunction,Copper,L2,Inr,Signal*%
%TF.Part,Single*%
G01*
G75*
%TA.AperFunction,Conductor*%
%ADD30C,0.020000*%
%TA.AperFunction,ComponentPad*%
%ADD32C,0.055118*%
%ADD33R,0.055118X0.055118*%
%ADD34O,0.070000X0.060000*%
%ADD35C,0.064961*%
%ADD36C,0.061024*%
%ADD37R,0.061024X0.061024*%
%ADD38C,0.037402*%
G04:AMPARAMS|DCode=39|XSize=64.961mil|YSize=64.961mil|CornerRadius=16.24mil|HoleSize=0mil|Usage=FLASHONLY|Rotation=270.000|XOffset=0mil|YOffset=0mil|HoleType=Round|Shape=RoundedRectangle|*
%AMROUNDEDRECTD39*
21,1,0.064961,0.032480,0,0,270.0*
21,1,0.032480,0.064961,0,0,270.0*
1,1,0.032480,-0.016240,-0.016240*
1,1,0.032480,-0.016240,0.016240*
1,1,0.032480,0.016240,0.016240*
1,1,0.032480,0.016240,-0.016240*
%
%ADD39ROUNDEDRECTD39*%
%TA.AperFunction,ViaPad*%
%ADD40C,0.060000*%
%ADD41C,0.045000*%
G36*
X3300000Y20000D02*
X38000D01*
Y3825000D01*
X125936D01*
X127129Y3819000D01*
X115658Y3814249D01*
X103784Y3806314D01*
X93686Y3796216D01*
X85751Y3784342D01*
X80286Y3771148D01*
X77500Y3757141D01*
Y3755000D01*
X222500D01*
Y3757141D01*
X219714Y3771148D01*
X214249Y3784342D01*
X206314Y3796216D01*
X196216Y3806314D01*
X184342Y3814249D01*
X172871Y3819000D01*
X174065Y3825000D01*
X3150936D01*
X3152129Y3819000D01*
X3140658Y3814249D01*
X3128784Y3806314D01*
X3118686Y3796216D01*
X3110751Y3784342D01*
X3105286Y3771148D01*
X3102500Y3757141D01*
Y3755000D01*
X3247500D01*
Y3757141D01*
X3244714Y3771148D01*
X3239249Y3784342D01*
X3231314Y3796216D01*
X3221216Y3806314D01*
X3209342Y3814249D01*
X3197871Y3819000D01*
X3199064Y3825000D01*
X3300000D01*
Y20000D01*
D02*
G37*
%LPC*%
G36*
X3247500Y3745000D02*
X3180000D01*
Y3677500D01*
X3182141D01*
X3196148Y3680286D01*
X3209342Y3685751D01*
X3221216Y3693686D01*
X3231314Y3703784D01*
X3239249Y3715658D01*
X3244714Y3728852D01*
X3247500Y3742859D01*
Y3745000D01*
D02*
G37*
G36*
X3170000D02*
X3102500D01*
Y3742859D01*
X3105286Y3728852D01*
X3110751Y3715658D01*
X3118686Y3703784D01*
X3128784Y3693686D01*
X3140658Y3685751D01*
X3153852Y3680286D01*
X3167859Y3677500D01*
X3170000D01*
Y3745000D01*
D02*
G37*
G36*
X222500D02*
X155000D01*
Y3677500D01*
X157141D01*
X171148Y3680286D01*
X184342Y3685751D01*
X196216Y3693686D01*
X206314Y3703784D01*
X214249Y3715658D01*
X219714Y3728852D01*
X222500Y3742859D01*
Y3745000D01*
D02*
G37*
G36*
X145000D02*
X77500D01*
Y3742859D01*
X80286Y3728852D01*
X85751Y3715658D01*
X93686Y3703784D01*
X103784Y3693686D01*
X115658Y3685751D01*
X128852Y3680286D01*
X142859Y3677500D01*
X145000D01*
Y3745000D01*
D02*
G37*
G36*
X1739937Y3542500D02*
X1730063D01*
X1720525Y3539944D01*
X1711975Y3535008D01*
X1704993Y3528026D01*
X1700056Y3519474D01*
X1697500Y3509937D01*
Y3500063D01*
X1700056Y3490526D01*
X1704993Y3481974D01*
X1711975Y3474992D01*
X1720525Y3470056D01*
X1730063Y3467500D01*
X1739937D01*
X1749475Y3470056D01*
X1758025Y3474992D01*
X1765007Y3481974D01*
X1769944Y3490526D01*
X1772500Y3500063D01*
Y3509937D01*
X1769944Y3519474D01*
X1765007Y3528026D01*
X1758025Y3535008D01*
X1749475Y3539944D01*
X1739937Y3542500D01*
D02*
G37*
G36*
X1919937Y3402500D02*
X1910063D01*
X1900525Y3399944D01*
X1891975Y3395008D01*
X1884993Y3388026D01*
X1880056Y3379474D01*
X1877500Y3369937D01*
Y3360063D01*
X1880056Y3350526D01*
X1884993Y3341974D01*
X1891975Y3334992D01*
X1900525Y3330056D01*
X1910063Y3327500D01*
X1919937D01*
X1929475Y3330056D01*
X1938025Y3334992D01*
X1945007Y3341974D01*
X1949944Y3350526D01*
X1952500Y3360063D01*
Y3369937D01*
X1949944Y3379474D01*
X1945007Y3388026D01*
X1938025Y3395008D01*
X1929475Y3399944D01*
X1919937Y3402500D01*
D02*
G37*
G36*
X459937D02*
X450063D01*
X440526Y3399944D01*
X431974Y3395008D01*
X424993Y3388026D01*
X420056Y3379474D01*
X417500Y3369937D01*
Y3360063D01*
X420056Y3350526D01*
X424993Y3341974D01*
X431974Y3334992D01*
X440526Y3330056D01*
X450063Y3327500D01*
X459937D01*
X469474Y3330056D01*
X478026Y3334992D01*
X485007Y3341974D01*
X489944Y3350526D01*
X492500Y3360063D01*
Y3369937D01*
X489944Y3379474D01*
X485007Y3388026D01*
X478026Y3395008D01*
X469474Y3399944D01*
X459937Y3402500D01*
D02*
G37*
G36*
X2899937Y3362500D02*
X2890063D01*
X2880526Y3359944D01*
X2871974Y3355008D01*
X2864992Y3348026D01*
X2860056Y3339474D01*
X2857500Y3329937D01*
Y3323025D01*
X2855749Y3319251D01*
X2851975Y3317500D01*
X2845063D01*
X2835526Y3314944D01*
X2826974Y3310008D01*
X2819992Y3303026D01*
X2815056Y3294474D01*
X2812500Y3284937D01*
Y3275063D01*
X2815056Y3265526D01*
X2819992Y3256974D01*
X2826974Y3249992D01*
X2835526Y3245056D01*
X2845063Y3242500D01*
X2854937D01*
X2864474Y3245056D01*
X2873026Y3249992D01*
X2880008Y3256974D01*
X2884944Y3265526D01*
X2887500Y3275063D01*
Y3281975D01*
X2889251Y3285749D01*
X2893025Y3287500D01*
X2899937D01*
X2909474Y3290056D01*
X2918026Y3294992D01*
X2925008Y3301974D01*
X2929944Y3310526D01*
X2932500Y3320063D01*
Y3329937D01*
X2929944Y3339474D01*
X2925008Y3348026D01*
X2918026Y3355008D01*
X2909474Y3359944D01*
X2899937Y3362500D01*
D02*
G37*
G36*
X2068603Y3293559D02*
X2057397D01*
X2046573Y3290659D01*
X2036868Y3285056D01*
X2028944Y3277132D01*
X2023341Y3267427D01*
X2020441Y3256603D01*
Y3245397D01*
X2023341Y3234573D01*
X2028944Y3224868D01*
X2036868Y3216944D01*
X2046573Y3211341D01*
X2057397Y3208441D01*
X2068603D01*
X2079427Y3211341D01*
X2089132Y3216944D01*
X2097056Y3224868D01*
X2102659Y3234573D01*
X2105559Y3245397D01*
Y3256603D01*
X2102659Y3267427D01*
X2097056Y3277132D01*
X2089132Y3285056D01*
X2079427Y3290659D01*
X2068603Y3293559D01*
D02*
G37*
G36*
X1168603D02*
X1157397D01*
X1146573Y3290659D01*
X1136868Y3285056D01*
X1128944Y3277132D01*
X1123341Y3267427D01*
X1120441Y3256603D01*
Y3245397D01*
X1123341Y3234573D01*
X1128944Y3224868D01*
X1136868Y3216944D01*
X1146573Y3211341D01*
X1157397Y3208441D01*
X1168603D01*
X1179427Y3211341D01*
X1189132Y3216944D01*
X1197056Y3224868D01*
X1202659Y3234573D01*
X1205559Y3245397D01*
Y3256603D01*
X1202659Y3267427D01*
X1197056Y3277132D01*
X1189132Y3285056D01*
X1179427Y3290659D01*
X1168603Y3293559D01*
D02*
G37*
G36*
X1729937Y3187500D02*
X1720063D01*
X1710525Y3184944D01*
X1701975Y3180008D01*
X1694993Y3173026D01*
X1690056Y3164474D01*
X1687500Y3154937D01*
Y3145063D01*
X1690056Y3135526D01*
X1694993Y3126974D01*
X1701975Y3119992D01*
X1710525Y3115056D01*
X1720063Y3112500D01*
X1729937D01*
X1739475Y3115056D01*
X1748025Y3119992D01*
X1755007Y3126974D01*
X1759944Y3135526D01*
X1762500Y3145063D01*
Y3154937D01*
X1759944Y3164474D01*
X1755007Y3173026D01*
X1748025Y3180008D01*
X1739475Y3184944D01*
X1729937Y3187500D01*
D02*
G37*
G36*
X2068603Y3193559D02*
X2057397D01*
X2046573Y3190659D01*
X2036868Y3185056D01*
X2028944Y3177132D01*
X2023341Y3167427D01*
X2020441Y3156603D01*
Y3145397D01*
X2023341Y3134573D01*
X2028944Y3124868D01*
X2036868Y3116944D01*
X2046573Y3111341D01*
X2057397Y3108441D01*
X2068603D01*
X2079427Y3111341D01*
X2089132Y3116944D01*
X2097056Y3124868D01*
X2102659Y3134573D01*
X2105559Y3145397D01*
Y3156603D01*
X2102659Y3167427D01*
X2097056Y3177132D01*
X2089132Y3185056D01*
X2079427Y3190659D01*
X2068603Y3193559D01*
D02*
G37*
G36*
X1168603D02*
X1157397D01*
X1146573Y3190659D01*
X1136868Y3185056D01*
X1128944Y3177132D01*
X1123341Y3167427D01*
X1120441Y3156603D01*
Y3145397D01*
X1123341Y3134573D01*
X1128944Y3124868D01*
X1136868Y3116944D01*
X1146573Y3111341D01*
X1157397Y3108441D01*
X1168603D01*
X1179427Y3111341D01*
X1189132Y3116944D01*
X1197056Y3124868D01*
X1202659Y3134573D01*
X1205559Y3145397D01*
Y3156603D01*
X1202659Y3167427D01*
X1197056Y3177132D01*
X1189132Y3185056D01*
X1179427Y3190659D01*
X1168603Y3193559D01*
D02*
G37*
G36*
X2068603Y3093559D02*
X2057397D01*
X2046573Y3090659D01*
X2036868Y3085056D01*
X2028944Y3077132D01*
X2023341Y3067427D01*
X2020441Y3056603D01*
Y3045397D01*
X2023341Y3034573D01*
X2028944Y3024868D01*
X2036868Y3016944D01*
X2046573Y3011341D01*
X2057397Y3008441D01*
X2068603D01*
X2079427Y3011341D01*
X2089132Y3016944D01*
X2097056Y3024868D01*
X2102659Y3034573D01*
X2105559Y3045397D01*
Y3056603D01*
X2102659Y3067427D01*
X2097056Y3077132D01*
X2089132Y3085056D01*
X2079427Y3090659D01*
X2068603Y3093559D01*
D02*
G37*
G36*
X1168603D02*
X1157397D01*
X1146573Y3090659D01*
X1136868Y3085056D01*
X1128944Y3077132D01*
X1123341Y3067427D01*
X1120441Y3056603D01*
Y3045397D01*
X1123341Y3034573D01*
X1128944Y3024868D01*
X1136868Y3016944D01*
X1146573Y3011341D01*
X1157397Y3008441D01*
X1168603D01*
X1179427Y3011341D01*
X1189132Y3016944D01*
X1197056Y3024868D01*
X1202659Y3034573D01*
X1205559Y3045397D01*
Y3056603D01*
X1202659Y3067427D01*
X1197056Y3077132D01*
X1189132Y3085056D01*
X1179427Y3090659D01*
X1168603Y3093559D01*
D02*
G37*
G36*
X2068603Y2993559D02*
X2057397D01*
X2046573Y2990659D01*
X2036868Y2985056D01*
X2028944Y2977132D01*
X2023341Y2967427D01*
X2020441Y2956603D01*
Y2945397D01*
X2023341Y2934573D01*
X2028944Y2924868D01*
X2036868Y2916944D01*
X2046573Y2911341D01*
X2057397Y2908441D01*
X2068603D01*
X2079427Y2911341D01*
X2089132Y2916944D01*
X2097056Y2924868D01*
X2102659Y2934573D01*
X2105559Y2945397D01*
Y2956603D01*
X2102659Y2967427D01*
X2097056Y2977132D01*
X2089132Y2985056D01*
X2079427Y2990659D01*
X2068603Y2993559D01*
D02*
G37*
G36*
X1168603D02*
X1157397D01*
X1146573Y2990659D01*
X1136868Y2985056D01*
X1128944Y2977132D01*
X1123341Y2967427D01*
X1120441Y2956603D01*
Y2945397D01*
X1123341Y2934573D01*
X1128944Y2924868D01*
X1136868Y2916944D01*
X1146573Y2911341D01*
X1157397Y2908441D01*
X1168603D01*
X1179427Y2911341D01*
X1189132Y2916944D01*
X1197056Y2924868D01*
X1202659Y2934573D01*
X1205559Y2945397D01*
Y2956603D01*
X1202659Y2967427D01*
X1197056Y2977132D01*
X1189132Y2985056D01*
X1179427Y2990659D01*
X1168603Y2993559D01*
D02*
G37*
G36*
X885937Y2896500D02*
X876063D01*
X866525Y2893944D01*
X857975Y2889008D01*
X850992Y2882026D01*
X846056Y2873474D01*
X843500Y2863937D01*
Y2854063D01*
X846056Y2844526D01*
X850992Y2835974D01*
X857975Y2828992D01*
X866525Y2824056D01*
X876063Y2821500D01*
X885937D01*
X895475Y2824056D01*
X904025Y2828992D01*
X911008Y2835974D01*
X915944Y2844526D01*
X918500Y2854063D01*
Y2863937D01*
X915944Y2873474D01*
X911008Y2882026D01*
X904025Y2889008D01*
X895475Y2893944D01*
X885937Y2896500D01*
D02*
G37*
G36*
X2068603Y2893559D02*
X2057397D01*
X2046573Y2890659D01*
X2036868Y2885056D01*
X2028944Y2877132D01*
X2023341Y2867427D01*
X2020441Y2856603D01*
Y2845397D01*
X2023341Y2834573D01*
X2028944Y2824868D01*
X2036868Y2816944D01*
X2046573Y2811341D01*
X2057397Y2808441D01*
X2068603D01*
X2079427Y2811341D01*
X2089132Y2816944D01*
X2097056Y2824868D01*
X2102659Y2834573D01*
X2105559Y2845397D01*
Y2856603D01*
X2102659Y2867427D01*
X2097056Y2877132D01*
X2089132Y2885056D01*
X2079427Y2890659D01*
X2068603Y2893559D01*
D02*
G37*
G36*
X1168603D02*
X1157397D01*
X1146573Y2890659D01*
X1136868Y2885056D01*
X1128944Y2877132D01*
X1123341Y2867427D01*
X1120441Y2856603D01*
Y2845397D01*
X1123341Y2834573D01*
X1128944Y2824868D01*
X1136868Y2816944D01*
X1146573Y2811341D01*
X1157397Y2808441D01*
X1168603D01*
X1179427Y2811341D01*
X1189132Y2816944D01*
X1197056Y2824868D01*
X1202659Y2834573D01*
X1205559Y2845397D01*
Y2856603D01*
X1202659Y2867427D01*
X1197056Y2877132D01*
X1189132Y2885056D01*
X1179427Y2890659D01*
X1168603Y2893559D01*
D02*
G37*
G36*
X2724937Y2872500D02*
X2715063D01*
X2705526Y2869944D01*
X2696974Y2865008D01*
X2689992Y2858026D01*
X2685056Y2849474D01*
X2682500Y2839937D01*
Y2830063D01*
X2685056Y2820526D01*
X2689992Y2811974D01*
X2696974Y2804992D01*
X2705526Y2800056D01*
X2715063Y2797500D01*
X2724937D01*
X2734474Y2800056D01*
X2743026Y2804992D01*
X2750008Y2811974D01*
X2754944Y2820526D01*
X2757500Y2830063D01*
Y2839937D01*
X2754944Y2849474D01*
X2750008Y2858026D01*
X2743026Y2865008D01*
X2734474Y2869944D01*
X2724937Y2872500D01*
D02*
G37*
G36*
X2289937Y2837500D02*
X2280063D01*
X2270526Y2834944D01*
X2261974Y2830008D01*
X2254992Y2823026D01*
X2250056Y2814474D01*
X2247500Y2804937D01*
Y2795063D01*
X2250056Y2785526D01*
X2254992Y2776974D01*
X2261974Y2769992D01*
X2270526Y2765056D01*
X2280063Y2762500D01*
X2289937D01*
X2299474Y2765056D01*
X2308026Y2769992D01*
X2315008Y2776974D01*
X2319944Y2785526D01*
X2322500Y2795063D01*
Y2804937D01*
X2319944Y2814474D01*
X2315008Y2823026D01*
X2308026Y2830008D01*
X2299474Y2834944D01*
X2289937Y2837500D01*
D02*
G37*
G36*
X3225512Y2820512D02*
X3134488D01*
Y2729488D01*
X3225512D01*
Y2820512D01*
D02*
G37*
G36*
X199937Y2797500D02*
X190063D01*
X180525Y2794944D01*
X171975Y2790008D01*
X164993Y2783026D01*
X160056Y2774474D01*
X157500Y2764937D01*
Y2755063D01*
X160056Y2745526D01*
X164993Y2736974D01*
X171975Y2729992D01*
X180525Y2725056D01*
X190063Y2722500D01*
X199937D01*
X209475Y2725056D01*
X218025Y2729992D01*
X225007Y2736974D01*
X229944Y2745526D01*
X232500Y2755063D01*
Y2764937D01*
X229944Y2774474D01*
X225007Y2783026D01*
X218025Y2790008D01*
X209475Y2794944D01*
X199937Y2797500D01*
D02*
G37*
G36*
X2068603Y2793559D02*
X2057397D01*
X2046573Y2790659D01*
X2036868Y2785056D01*
X2028944Y2777132D01*
X2023341Y2767427D01*
X2020441Y2756603D01*
Y2745397D01*
X2023341Y2734573D01*
X2028944Y2724868D01*
X2036868Y2716944D01*
X2046573Y2711341D01*
X2057397Y2708441D01*
X2068603D01*
X2079427Y2711341D01*
X2089132Y2716944D01*
X2097056Y2724868D01*
X2102659Y2734573D01*
X2105559Y2745397D01*
Y2756603D01*
X2102659Y2767427D01*
X2097056Y2777132D01*
X2089132Y2785056D01*
X2079427Y2790659D01*
X2068603Y2793559D01*
D02*
G37*
G36*
X1168603D02*
X1157397D01*
X1146573Y2790659D01*
X1136868Y2785056D01*
X1128944Y2777132D01*
X1123341Y2767427D01*
X1120441Y2756603D01*
Y2745397D01*
X1123341Y2734573D01*
X1128944Y2724868D01*
X1136868Y2716944D01*
X1146573Y2711341D01*
X1157397Y2708441D01*
X1168603D01*
X1179427Y2711341D01*
X1189132Y2716944D01*
X1197056Y2724868D01*
X1202659Y2734573D01*
X1205559Y2745397D01*
Y2756603D01*
X1202659Y2767427D01*
X1197056Y2777132D01*
X1189132Y2785056D01*
X1179427Y2790659D01*
X1168603Y2793559D01*
D02*
G37*
G36*
X3185992Y2720512D02*
X3174008D01*
X3162433Y2717410D01*
X3152055Y2711419D01*
X3143581Y2702945D01*
X3137590Y2692567D01*
X3134488Y2680992D01*
Y2669008D01*
X3137590Y2657433D01*
X3143581Y2647055D01*
X3152055Y2638581D01*
X3162433Y2632590D01*
X3174008Y2629488D01*
X3185992D01*
X3197567Y2632590D01*
X3207945Y2638581D01*
X3216419Y2647055D01*
X3222410Y2657433D01*
X3225512Y2669008D01*
Y2680992D01*
X3222410Y2692567D01*
X3216419Y2702945D01*
X3207945Y2711419D01*
X3197567Y2717410D01*
X3185992Y2720512D01*
D02*
G37*
G36*
X635251Y3006480D02*
X622749D01*
X610673Y3003245D01*
X599846Y2996994D01*
X591006Y2988154D01*
X584755Y2977327D01*
X581520Y2965251D01*
Y2952749D01*
X584755Y2940673D01*
X591006Y2929846D01*
X599846Y2921006D01*
X610673Y2914755D01*
X620562Y2912106D01*
Y2905894D01*
X610673Y2903245D01*
X599846Y2896994D01*
X591006Y2888154D01*
X584755Y2877327D01*
X581520Y2865251D01*
Y2852749D01*
X584755Y2840673D01*
X591006Y2829846D01*
X599846Y2821006D01*
X610673Y2814755D01*
X620562Y2812106D01*
Y2805894D01*
X610673Y2803245D01*
X599846Y2796994D01*
X591006Y2788154D01*
X584755Y2777327D01*
X581520Y2765251D01*
Y2752749D01*
X584755Y2740673D01*
X591006Y2729846D01*
X599846Y2721006D01*
X610673Y2714755D01*
X620562Y2712106D01*
Y2705894D01*
X610673Y2703245D01*
X599846Y2696994D01*
X591006Y2688154D01*
X584755Y2677327D01*
X581520Y2665251D01*
Y2652749D01*
X584755Y2640673D01*
X591006Y2629846D01*
X599846Y2621006D01*
X610673Y2614755D01*
X622749Y2611520D01*
X635251D01*
X647327Y2614755D01*
X658154Y2621006D01*
X666994Y2629846D01*
X673245Y2640673D01*
X676480Y2652749D01*
Y2665251D01*
X673245Y2677327D01*
X666994Y2688154D01*
X658154Y2696994D01*
X647327Y2703245D01*
X637438Y2705894D01*
Y2712106D01*
X647327Y2714755D01*
X658154Y2721006D01*
X666994Y2729846D01*
X673245Y2740673D01*
X676480Y2752749D01*
Y2765251D01*
X673245Y2777327D01*
X666994Y2788154D01*
X658154Y2796994D01*
X647327Y2803245D01*
X637438Y2805894D01*
Y2812106D01*
X647327Y2814755D01*
X658154Y2821006D01*
X666994Y2829846D01*
X673245Y2840673D01*
X676480Y2852749D01*
Y2865251D01*
X673245Y2877327D01*
X666994Y2888154D01*
X658154Y2896994D01*
X647327Y2903245D01*
X637438Y2905894D01*
Y2912106D01*
X647327Y2914755D01*
X658154Y2921006D01*
X666994Y2929846D01*
X673245Y2940673D01*
X676480Y2952749D01*
Y2965251D01*
X673245Y2977327D01*
X666994Y2988154D01*
X658154Y2996994D01*
X647327Y3003245D01*
X635251Y3006480D01*
D02*
G37*
G36*
X2068603Y2693559D02*
X2057397D01*
X2046573Y2690659D01*
X2036868Y2685056D01*
X2028944Y2677132D01*
X2028574Y2676490D01*
X1826000D01*
X1816245Y2674550D01*
X1807976Y2669024D01*
X1766976Y2628024D01*
X1761450Y2619755D01*
X1759510Y2610000D01*
Y395000D01*
X1761450Y385246D01*
X1766976Y376976D01*
X1796976Y346976D01*
X1805245Y341450D01*
X1815000Y339510D01*
X2762457D01*
X2766974Y334993D01*
X2775526Y330056D01*
X2785063Y327500D01*
X2794937D01*
X2804474Y330056D01*
X2813026Y334993D01*
X2820008Y341974D01*
X2824944Y350526D01*
X2827500Y360063D01*
Y369937D01*
X2824944Y379474D01*
X2820008Y388026D01*
X2813026Y395007D01*
X2804474Y399944D01*
X2794937Y402500D01*
X2785063D01*
X2775526Y399944D01*
X2766974Y395007D01*
X2762457Y390490D01*
X1825558D01*
X1810490Y405558D01*
Y2599442D01*
X1836558Y2625510D01*
X2028574D01*
X2028944Y2624868D01*
X2036868Y2616944D01*
X2046573Y2611341D01*
X2057397Y2608441D01*
X2068603D01*
X2079427Y2611341D01*
X2089132Y2616944D01*
X2097056Y2624868D01*
X2102659Y2634573D01*
X2105559Y2645397D01*
Y2656603D01*
X2102659Y2667427D01*
X2097056Y2677132D01*
X2089132Y2685056D01*
X2079427Y2690659D01*
X2068603Y2693559D01*
D02*
G37*
G36*
X1168603D02*
X1157397D01*
X1146573Y2690659D01*
X1136868Y2685056D01*
X1128944Y2677132D01*
X1123341Y2667427D01*
X1120441Y2656603D01*
Y2645397D01*
X1123341Y2634573D01*
X1128944Y2624868D01*
X1136868Y2616944D01*
X1146573Y2611341D01*
X1157397Y2608441D01*
X1168603D01*
X1179427Y2611341D01*
X1189132Y2616944D01*
X1197056Y2624868D01*
X1202659Y2634573D01*
X1205559Y2645397D01*
Y2656603D01*
X1202659Y2667427D01*
X1197056Y2677132D01*
X1189132Y2685056D01*
X1179427Y2690659D01*
X1168603Y2693559D01*
D02*
G37*
G36*
X2349937Y2667500D02*
X2340063D01*
X2330526Y2664944D01*
X2321974Y2660008D01*
X2314992Y2653026D01*
X2310056Y2644474D01*
X2307500Y2634937D01*
Y2625063D01*
X2310056Y2615526D01*
X2314992Y2606974D01*
X2321974Y2599992D01*
X2330526Y2595056D01*
X2340063Y2592500D01*
X2349937D01*
X2359474Y2595056D01*
X2368026Y2599992D01*
X2375008Y2606974D01*
X2379944Y2615526D01*
X2382500Y2625063D01*
Y2634937D01*
X2379944Y2644474D01*
X2375008Y2653026D01*
X2368026Y2660008D01*
X2359474Y2664944D01*
X2349937Y2667500D01*
D02*
G37*
G36*
X634593Y2601480D02*
X634000D01*
Y2564000D01*
X671480D01*
Y2564593D01*
X668585Y2575397D01*
X662993Y2585084D01*
X655083Y2592993D01*
X645397Y2598585D01*
X634593Y2601480D01*
D02*
G37*
G36*
X624000D02*
X623407D01*
X612603Y2598585D01*
X602917Y2592993D01*
X595007Y2585084D01*
X589415Y2575397D01*
X586520Y2564593D01*
Y2564000D01*
X624000D01*
Y2601480D01*
D02*
G37*
G36*
X2100559Y2588559D02*
X2068000D01*
Y2556000D01*
X2100559D01*
Y2588559D01*
D02*
G37*
G36*
X1168000Y2588544D02*
Y2556000D01*
X1200544D01*
X1197999Y2565497D01*
X1193055Y2574062D01*
X1186062Y2581055D01*
X1177497Y2585999D01*
X1168000Y2588544D01*
D02*
G37*
G36*
X1158000D02*
X1148503Y2585999D01*
X1139938Y2581055D01*
X1132945Y2574062D01*
X1128001Y2565497D01*
X1125456Y2556000D01*
X1158000D01*
Y2588544D01*
D02*
G37*
G36*
X2058000Y2588559D02*
X2025441D01*
Y2556000D01*
X2058000D01*
Y2588559D01*
D02*
G37*
G36*
X671480Y2554000D02*
X634000D01*
Y2516520D01*
X634593D01*
X645397Y2519415D01*
X655083Y2525007D01*
X662993Y2532916D01*
X668585Y2542603D01*
X671480Y2553407D01*
Y2554000D01*
D02*
G37*
G36*
X624000D02*
X586520D01*
Y2553407D01*
X589415Y2542603D01*
X595007Y2532916D01*
X602917Y2525007D01*
X612603Y2519415D01*
X623407Y2516520D01*
X624000D01*
Y2554000D01*
D02*
G37*
G36*
X1200544Y2546000D02*
X1168000D01*
Y2513456D01*
X1177497Y2516001D01*
X1186062Y2520945D01*
X1193055Y2527938D01*
X1197999Y2536503D01*
X1200544Y2546000D01*
D02*
G37*
G36*
X1158000D02*
X1125456D01*
X1128001Y2536503D01*
X1132945Y2527938D01*
X1139938Y2520945D01*
X1148503Y2516001D01*
X1158000Y2513456D01*
Y2546000D01*
D02*
G37*
G36*
X2100559D02*
X2068000D01*
Y2513441D01*
X2100559D01*
Y2546000D01*
D02*
G37*
G36*
X2058000D02*
X2025441D01*
Y2513441D01*
X2058000D01*
Y2546000D01*
D02*
G37*
G36*
X2724937Y2497500D02*
X2715063D01*
X2705526Y2494944D01*
X2696974Y2490008D01*
X2689992Y2483026D01*
X2685056Y2474474D01*
X2682500Y2464937D01*
Y2455063D01*
X2685056Y2445526D01*
X2689992Y2436974D01*
X2696974Y2429992D01*
X2705526Y2425056D01*
X2715063Y2422500D01*
X2724937D01*
X2734474Y2425056D01*
X2743026Y2429992D01*
X2750008Y2436974D01*
X2754944Y2445526D01*
X2757500Y2455063D01*
Y2464937D01*
X2754944Y2474474D01*
X2750008Y2483026D01*
X2743026Y2490008D01*
X2734474Y2494944D01*
X2724937Y2497500D01*
D02*
G37*
G36*
X819937Y2452500D02*
X810063D01*
X800525Y2449944D01*
X791975Y2445008D01*
X784992Y2438026D01*
X780056Y2429474D01*
X777500Y2419937D01*
Y2410063D01*
X780056Y2400526D01*
X784992Y2391974D01*
X791975Y2384992D01*
X800525Y2380056D01*
X810063Y2377500D01*
X819937D01*
X829475Y2380056D01*
X838025Y2384992D01*
X845008Y2391974D01*
X849944Y2400526D01*
X852500Y2410063D01*
Y2419937D01*
X849944Y2429474D01*
X845008Y2438026D01*
X838025Y2445008D01*
X829475Y2449944D01*
X819937Y2452500D01*
D02*
G37*
G36*
X1709937Y2387500D02*
X1700063D01*
X1690525Y2384944D01*
X1681975Y2380008D01*
X1674993Y2373026D01*
X1670056Y2364474D01*
X1667500Y2354937D01*
Y2345063D01*
X1670056Y2335526D01*
X1674993Y2326974D01*
X1681975Y2319992D01*
X1690525Y2315056D01*
X1700063Y2312500D01*
X1709937D01*
X1719475Y2315056D01*
X1728025Y2319992D01*
X1735007Y2326974D01*
X1739944Y2335526D01*
X1742500Y2345063D01*
Y2354937D01*
X1739944Y2364474D01*
X1735007Y2373026D01*
X1728025Y2380008D01*
X1719475Y2384944D01*
X1709937Y2387500D01*
D02*
G37*
G36*
X1211937Y2330500D02*
X1202063D01*
X1192525Y2327944D01*
X1183975Y2323008D01*
X1176993Y2316026D01*
X1172056Y2307474D01*
X1169500Y2297937D01*
Y2288063D01*
X1172056Y2278526D01*
X1176993Y2269974D01*
X1183975Y2262992D01*
X1192525Y2258056D01*
X1202063Y2255500D01*
X1211937D01*
X1221475Y2258056D01*
X1230025Y2262992D01*
X1237007Y2269974D01*
X1241944Y2278526D01*
X1244500Y2288063D01*
Y2297937D01*
X1241944Y2307474D01*
X1237007Y2316026D01*
X1230025Y2323008D01*
X1221475Y2327944D01*
X1211937Y2330500D01*
D02*
G37*
G36*
X2618000Y2196388D02*
X2608000D01*
X2596253Y2194842D01*
X2585306Y2190307D01*
X2575906Y2183094D01*
X2568693Y2173694D01*
X2566247Y2167791D01*
X2559753D01*
X2557307Y2173694D01*
X2550094Y2183094D01*
X2540694Y2190307D01*
X2529747Y2194842D01*
X2518000Y2196388D01*
X2508000D01*
X2496253Y2194842D01*
X2485306Y2190307D01*
X2475906Y2183094D01*
X2468693Y2173694D01*
X2464158Y2162747D01*
X2462612Y2151000D01*
X2464158Y2139253D01*
X2468693Y2128306D01*
X2475906Y2118906D01*
X2485306Y2111693D01*
X2496253Y2107158D01*
X2508000Y2105612D01*
X2518000D01*
X2529747Y2107158D01*
X2540694Y2111693D01*
X2550094Y2118906D01*
X2557307Y2128306D01*
X2559753Y2134209D01*
X2566247D01*
X2568693Y2128306D01*
X2575906Y2118906D01*
X2585306Y2111693D01*
X2596253Y2107158D01*
X2608000Y2105612D01*
X2618000D01*
X2629747Y2107158D01*
X2640694Y2111693D01*
X2650094Y2118906D01*
X2657307Y2128306D01*
X2661842Y2139253D01*
X2663388Y2151000D01*
X2661842Y2162747D01*
X2657307Y2173694D01*
X2650094Y2183094D01*
X2640694Y2190307D01*
X2629747Y2194842D01*
X2618000Y2196388D01*
D02*
G37*
G36*
X818000D02*
X808000D01*
X796253Y2194842D01*
X785306Y2190307D01*
X775906Y2183094D01*
X768693Y2173694D01*
X766247Y2167791D01*
X759753D01*
X757307Y2173694D01*
X750094Y2183094D01*
X740694Y2190307D01*
X729747Y2194842D01*
X718000Y2196388D01*
X708000D01*
X696253Y2194842D01*
X685306Y2190307D01*
X675906Y2183094D01*
X668693Y2173694D01*
X664158Y2162747D01*
X662612Y2151000D01*
X664158Y2139253D01*
X668693Y2128306D01*
X675906Y2118906D01*
X685306Y2111693D01*
X696253Y2107158D01*
X708000Y2105612D01*
X718000D01*
X729747Y2107158D01*
X740694Y2111693D01*
X750094Y2118906D01*
X757307Y2128306D01*
X759753Y2134209D01*
X766247D01*
X768693Y2128306D01*
X775906Y2118906D01*
X785306Y2111693D01*
X796253Y2107158D01*
X808000Y2105612D01*
X818000D01*
X829747Y2107158D01*
X840694Y2111693D01*
X850094Y2118906D01*
X857307Y2128306D01*
X861842Y2139253D01*
X863388Y2151000D01*
X861842Y2162747D01*
X857307Y2173694D01*
X850094Y2183094D01*
X840694Y2190307D01*
X829747Y2194842D01*
X818000Y2196388D01*
D02*
G37*
G36*
X2618000Y2096388D02*
X2608000D01*
X2596253Y2094842D01*
X2585306Y2090307D01*
X2575906Y2083094D01*
X2568693Y2073694D01*
X2566247Y2067791D01*
X2559753D01*
X2557307Y2073694D01*
X2550094Y2083094D01*
X2540694Y2090307D01*
X2529747Y2094842D01*
X2518000Y2096388D01*
X2508000D01*
X2496253Y2094842D01*
X2485306Y2090307D01*
X2475906Y2083094D01*
X2468693Y2073694D01*
X2464158Y2062747D01*
X2462612Y2051000D01*
X2464158Y2039253D01*
X2468693Y2028306D01*
X2475906Y2018906D01*
X2485306Y2011693D01*
X2496253Y2007158D01*
X2508000Y2005612D01*
X2518000D01*
X2529747Y2007158D01*
X2540694Y2011693D01*
X2550094Y2018906D01*
X2557307Y2028306D01*
X2559753Y2034209D01*
X2566247D01*
X2568693Y2028306D01*
X2575906Y2018906D01*
X2585306Y2011693D01*
X2596253Y2007158D01*
X2608000Y2005612D01*
X2618000D01*
X2629747Y2007158D01*
X2640694Y2011693D01*
X2650094Y2018906D01*
X2657307Y2028306D01*
X2661842Y2039253D01*
X2663388Y2051000D01*
X2661842Y2062747D01*
X2657307Y2073694D01*
X2650094Y2083094D01*
X2640694Y2090307D01*
X2629747Y2094842D01*
X2618000Y2096388D01*
D02*
G37*
G36*
X818000D02*
X808000D01*
X796253Y2094842D01*
X785306Y2090307D01*
X775906Y2083094D01*
X768693Y2073694D01*
X766247Y2067791D01*
X759753D01*
X757307Y2073694D01*
X750094Y2083094D01*
X740694Y2090307D01*
X729747Y2094842D01*
X718000Y2096388D01*
X708000D01*
X696253Y2094842D01*
X685306Y2090307D01*
X675906Y2083094D01*
X668693Y2073694D01*
X664158Y2062747D01*
X662612Y2051000D01*
X664158Y2039253D01*
X668693Y2028306D01*
X675906Y2018906D01*
X685306Y2011693D01*
X696253Y2007158D01*
X708000Y2005612D01*
X718000D01*
X729747Y2007158D01*
X740694Y2011693D01*
X750094Y2018906D01*
X757307Y2028306D01*
X759753Y2034209D01*
X766247D01*
X768693Y2028306D01*
X775906Y2018906D01*
X785306Y2011693D01*
X796253Y2007158D01*
X808000Y2005612D01*
X818000D01*
X829747Y2007158D01*
X840694Y2011693D01*
X850094Y2018906D01*
X857307Y2028306D01*
X861842Y2039253D01*
X863388Y2051000D01*
X861842Y2062747D01*
X857307Y2073694D01*
X850094Y2083094D01*
X840694Y2090307D01*
X829747Y2094842D01*
X818000Y2096388D01*
D02*
G37*
G36*
X2618000Y1996388D02*
X2608000D01*
X2596253Y1994842D01*
X2585306Y1990307D01*
X2575906Y1983094D01*
X2568693Y1973694D01*
X2566247Y1967791D01*
X2559753D01*
X2557307Y1973694D01*
X2550094Y1983094D01*
X2540694Y1990307D01*
X2529747Y1994842D01*
X2518000Y1996388D01*
X2508000D01*
X2496253Y1994842D01*
X2485306Y1990307D01*
X2475906Y1983094D01*
X2468693Y1973694D01*
X2464158Y1962747D01*
X2462612Y1951000D01*
X2464158Y1939253D01*
X2468693Y1928306D01*
X2475906Y1918906D01*
X2485306Y1911693D01*
X2496253Y1907158D01*
X2508000Y1905612D01*
X2518000D01*
X2529747Y1907158D01*
X2540694Y1911693D01*
X2550094Y1918906D01*
X2557307Y1928306D01*
X2559753Y1934209D01*
X2566247D01*
X2568693Y1928306D01*
X2575906Y1918906D01*
X2585306Y1911693D01*
X2596253Y1907158D01*
X2608000Y1905612D01*
X2618000D01*
X2629747Y1907158D01*
X2640694Y1911693D01*
X2650094Y1918906D01*
X2657307Y1928306D01*
X2661842Y1939253D01*
X2663388Y1951000D01*
X2661842Y1962747D01*
X2657307Y1973694D01*
X2650094Y1983094D01*
X2640694Y1990307D01*
X2629747Y1994842D01*
X2618000Y1996388D01*
D02*
G37*
G36*
X818000D02*
X808000D01*
X796253Y1994842D01*
X785306Y1990307D01*
X775906Y1983094D01*
X768693Y1973694D01*
X766247Y1967791D01*
X759753D01*
X757307Y1973694D01*
X750094Y1983094D01*
X740694Y1990307D01*
X729747Y1994842D01*
X718000Y1996388D01*
X708000D01*
X696253Y1994842D01*
X685306Y1990307D01*
X675906Y1983094D01*
X668693Y1973694D01*
X664158Y1962747D01*
X662612Y1951000D01*
X664158Y1939253D01*
X668693Y1928306D01*
X675906Y1918906D01*
X685306Y1911693D01*
X696253Y1907158D01*
X708000Y1905612D01*
X718000D01*
X729747Y1907158D01*
X740694Y1911693D01*
X750094Y1918906D01*
X757307Y1928306D01*
X759753Y1934209D01*
X766247D01*
X768693Y1928306D01*
X775906Y1918906D01*
X785306Y1911693D01*
X796253Y1907158D01*
X808000Y1905612D01*
X818000D01*
X829747Y1907158D01*
X840694Y1911693D01*
X850094Y1918906D01*
X857307Y1928306D01*
X861842Y1939253D01*
X863388Y1951000D01*
X861842Y1962747D01*
X857307Y1973694D01*
X850094Y1983094D01*
X840694Y1990307D01*
X829747Y1994842D01*
X818000Y1996388D01*
D02*
G37*
G36*
X2618000Y1896388D02*
X2608000D01*
X2596253Y1894842D01*
X2585306Y1890307D01*
X2575906Y1883094D01*
X2568693Y1873694D01*
X2566247Y1867791D01*
X2559753D01*
X2557307Y1873694D01*
X2550094Y1883094D01*
X2540694Y1890307D01*
X2529747Y1894842D01*
X2518000Y1896388D01*
X2508000D01*
X2496253Y1894842D01*
X2485306Y1890307D01*
X2475906Y1883094D01*
X2468693Y1873694D01*
X2464158Y1862747D01*
X2462612Y1851000D01*
X2464158Y1839253D01*
X2468693Y1828306D01*
X2475906Y1818906D01*
X2485306Y1811693D01*
X2496253Y1807158D01*
X2508000Y1805612D01*
X2518000D01*
X2529747Y1807158D01*
X2540694Y1811693D01*
X2550094Y1818906D01*
X2557307Y1828306D01*
X2559753Y1834209D01*
X2566247D01*
X2568693Y1828306D01*
X2575906Y1818906D01*
X2585306Y1811693D01*
X2596253Y1807158D01*
X2608000Y1805612D01*
X2618000D01*
X2629747Y1807158D01*
X2640694Y1811693D01*
X2650094Y1818906D01*
X2657307Y1828306D01*
X2661842Y1839253D01*
X2663388Y1851000D01*
X2661842Y1862747D01*
X2657307Y1873694D01*
X2650094Y1883094D01*
X2640694Y1890307D01*
X2629747Y1894842D01*
X2618000Y1896388D01*
D02*
G37*
G36*
X818000D02*
X808000D01*
X796253Y1894842D01*
X785306Y1890307D01*
X775906Y1883094D01*
X768693Y1873694D01*
X764158Y1862747D01*
X763504Y1857780D01*
X757453D01*
X756971Y1861442D01*
X752940Y1871173D01*
X746528Y1879528D01*
X738173Y1885940D01*
X728442Y1889970D01*
X718000Y1891345D01*
Y1851000D01*
Y1810655D01*
X728442Y1812030D01*
X738173Y1816060D01*
X746528Y1822472D01*
X752940Y1830827D01*
X756971Y1840558D01*
X757453Y1844220D01*
X763504D01*
X764158Y1839253D01*
X768693Y1828306D01*
X775906Y1818906D01*
X785306Y1811693D01*
X796253Y1807158D01*
X808000Y1805612D01*
X818000D01*
X829747Y1807158D01*
X840694Y1811693D01*
X850094Y1818906D01*
X857307Y1828306D01*
X861842Y1839253D01*
X863388Y1851000D01*
X861842Y1862747D01*
X857307Y1873694D01*
X850094Y1883094D01*
X840694Y1890307D01*
X829747Y1894842D01*
X818000Y1896388D01*
D02*
G37*
G36*
X708000Y1891345D02*
X697558Y1889970D01*
X687827Y1885940D01*
X679472Y1879528D01*
X673060Y1871173D01*
X669029Y1861442D01*
X668313Y1856000D01*
X708000D01*
Y1891345D01*
D02*
G37*
G36*
Y1846000D02*
X668313D01*
X669029Y1840558D01*
X673060Y1830827D01*
X679472Y1822472D01*
X687827Y1816060D01*
X697558Y1812030D01*
X708000Y1810655D01*
Y1846000D01*
D02*
G37*
G36*
X2618000Y1796388D02*
X2608000D01*
X2596253Y1794842D01*
X2585306Y1790307D01*
X2575906Y1783094D01*
X2568693Y1773694D01*
X2566247Y1767791D01*
X2559753D01*
X2557307Y1773694D01*
X2550094Y1783094D01*
X2540694Y1790307D01*
X2529747Y1794842D01*
X2518000Y1796388D01*
X2508000D01*
X2496253Y1794842D01*
X2485306Y1790307D01*
X2475906Y1783094D01*
X2468693Y1773694D01*
X2464158Y1762747D01*
X2462612Y1751000D01*
X2464158Y1739253D01*
X2468693Y1728306D01*
X2475906Y1718906D01*
X2485306Y1711693D01*
X2496253Y1707158D01*
X2508000Y1705612D01*
X2518000D01*
X2529747Y1707158D01*
X2540694Y1711693D01*
X2550094Y1718906D01*
X2557307Y1728306D01*
X2559753Y1734209D01*
X2566247D01*
X2568693Y1728306D01*
X2575906Y1718906D01*
X2585306Y1711693D01*
X2596253Y1707158D01*
X2608000Y1705612D01*
X2618000D01*
X2629747Y1707158D01*
X2640694Y1711693D01*
X2650094Y1718906D01*
X2657307Y1728306D01*
X2661842Y1739253D01*
X2663388Y1751000D01*
X2661842Y1762747D01*
X2657307Y1773694D01*
X2650094Y1783094D01*
X2640694Y1790307D01*
X2629747Y1794842D01*
X2618000Y1796388D01*
D02*
G37*
G36*
X818000D02*
X808000D01*
X796253Y1794842D01*
X785306Y1790307D01*
X775906Y1783094D01*
X768693Y1773694D01*
X766247Y1767791D01*
X759753D01*
X757307Y1773694D01*
X750094Y1783094D01*
X740694Y1790307D01*
X729747Y1794842D01*
X718000Y1796388D01*
X708000D01*
X696253Y1794842D01*
X685306Y1790307D01*
X675906Y1783094D01*
X668693Y1773694D01*
X664158Y1762747D01*
X662612Y1751000D01*
X664158Y1739253D01*
X668693Y1728306D01*
X675906Y1718906D01*
X685306Y1711693D01*
X696253Y1707158D01*
X708000Y1705612D01*
X718000D01*
X729747Y1707158D01*
X740694Y1711693D01*
X750094Y1718906D01*
X757307Y1728306D01*
X759753Y1734209D01*
X766247D01*
X768693Y1728306D01*
X775906Y1718906D01*
X785306Y1711693D01*
X796253Y1707158D01*
X808000Y1705612D01*
X818000D01*
X829747Y1707158D01*
X840694Y1711693D01*
X850094Y1718906D01*
X857307Y1728306D01*
X861842Y1739253D01*
X863388Y1751000D01*
X861842Y1762747D01*
X857307Y1773694D01*
X850094Y1783094D01*
X840694Y1790307D01*
X829747Y1794842D01*
X818000Y1796388D01*
D02*
G37*
G36*
X1859937Y1842500D02*
X1850063D01*
X1840525Y1839944D01*
X1831975Y1835007D01*
X1824993Y1828025D01*
X1820056Y1819475D01*
X1817500Y1809937D01*
Y1800063D01*
X1820056Y1790525D01*
X1824993Y1781975D01*
X1831975Y1774993D01*
X1840525Y1770056D01*
X1850063Y1767500D01*
X1859937D01*
X1869475Y1770056D01*
X1878025Y1774993D01*
X1885007Y1781975D01*
X1889944Y1790525D01*
X1892500Y1800063D01*
Y1809937D01*
X1889944Y1819475D01*
X1885007Y1828025D01*
X1878025Y1835007D01*
X1869475Y1839944D01*
X1859937Y1842500D01*
D02*
G37*
G36*
X2618000Y1696388D02*
X2608000D01*
X2596253Y1694842D01*
X2585306Y1690307D01*
X2575906Y1683094D01*
X2568693Y1673694D01*
X2566247Y1667791D01*
X2559753D01*
X2557307Y1673694D01*
X2550094Y1683094D01*
X2540694Y1690307D01*
X2529747Y1694842D01*
X2518000Y1696388D01*
X2508000D01*
X2496253Y1694842D01*
X2485306Y1690307D01*
X2475906Y1683094D01*
X2468693Y1673694D01*
X2464158Y1662747D01*
X2462612Y1651000D01*
X2464158Y1639253D01*
X2468693Y1628306D01*
X2475906Y1618906D01*
X2485306Y1611693D01*
X2496253Y1607158D01*
X2508000Y1605612D01*
X2518000D01*
X2529747Y1607158D01*
X2540694Y1611693D01*
X2550094Y1618906D01*
X2557307Y1628306D01*
X2559753Y1634209D01*
X2566247D01*
X2568693Y1628306D01*
X2575906Y1618906D01*
X2585306Y1611693D01*
X2596253Y1607158D01*
X2608000Y1605612D01*
X2618000D01*
X2629747Y1607158D01*
X2640694Y1611693D01*
X2650094Y1618906D01*
X2657307Y1628306D01*
X2661842Y1639253D01*
X2663388Y1651000D01*
X2661842Y1662747D01*
X2657307Y1673694D01*
X2650094Y1683094D01*
X2640694Y1690307D01*
X2629747Y1694842D01*
X2618000Y1696388D01*
D02*
G37*
G36*
X818000D02*
X808000D01*
X796253Y1694842D01*
X785306Y1690307D01*
X775906Y1683094D01*
X768693Y1673694D01*
X766247Y1667791D01*
X759753D01*
X757307Y1673694D01*
X750094Y1683094D01*
X740694Y1690307D01*
X729747Y1694842D01*
X718000Y1696388D01*
X708000D01*
X696253Y1694842D01*
X685306Y1690307D01*
X675906Y1683094D01*
X668693Y1673694D01*
X664158Y1662747D01*
X662612Y1651000D01*
X664158Y1639253D01*
X668693Y1628306D01*
X675906Y1618906D01*
X685306Y1611693D01*
X696253Y1607158D01*
X708000Y1605612D01*
X718000D01*
X729747Y1607158D01*
X740694Y1611693D01*
X750094Y1618906D01*
X757307Y1628306D01*
X759753Y1634209D01*
X766247D01*
X768693Y1628306D01*
X775906Y1618906D01*
X785306Y1611693D01*
X796253Y1607158D01*
X808000Y1605612D01*
X818000D01*
X829747Y1607158D01*
X840694Y1611693D01*
X850094Y1618906D01*
X857307Y1628306D01*
X861842Y1639253D01*
X863388Y1651000D01*
X861842Y1662747D01*
X857307Y1673694D01*
X850094Y1683094D01*
X840694Y1690307D01*
X829747Y1694842D01*
X818000Y1696388D01*
D02*
G37*
G36*
X449937Y1687500D02*
X440063D01*
X430526Y1684944D01*
X421974Y1680007D01*
X414993Y1673025D01*
X410056Y1664475D01*
X407500Y1654937D01*
Y1645063D01*
X410056Y1635525D01*
X414993Y1626975D01*
X421974Y1619993D01*
X430526Y1615056D01*
X440063Y1612500D01*
X449937D01*
X459474Y1615056D01*
X468026Y1619993D01*
X475007Y1626975D01*
X479944Y1635525D01*
X482500Y1645063D01*
Y1654937D01*
X479944Y1664475D01*
X475007Y1673025D01*
X468026Y1680007D01*
X459474Y1684944D01*
X449937Y1687500D01*
D02*
G37*
G36*
X2618000Y1596388D02*
X2608000D01*
X2596253Y1594842D01*
X2585306Y1590307D01*
X2575906Y1583094D01*
X2568693Y1573694D01*
X2566247Y1567791D01*
X2559753D01*
X2557307Y1573694D01*
X2550094Y1583094D01*
X2540694Y1590307D01*
X2529747Y1594842D01*
X2518000Y1596388D01*
X2508000D01*
X2496253Y1594842D01*
X2485306Y1590307D01*
X2475906Y1583094D01*
X2468693Y1573694D01*
X2464158Y1562747D01*
X2462612Y1551000D01*
X2464158Y1539253D01*
X2468693Y1528306D01*
X2475906Y1518906D01*
X2485306Y1511693D01*
X2496253Y1507158D01*
X2508000Y1505612D01*
X2518000D01*
X2529747Y1507158D01*
X2540694Y1511693D01*
X2550094Y1518906D01*
X2557307Y1528306D01*
X2559753Y1534209D01*
X2566247D01*
X2568693Y1528306D01*
X2575906Y1518906D01*
X2585306Y1511693D01*
X2596253Y1507158D01*
X2608000Y1505612D01*
X2618000D01*
X2629747Y1507158D01*
X2640694Y1511693D01*
X2650094Y1518906D01*
X2657307Y1528306D01*
X2661842Y1539253D01*
X2663388Y1551000D01*
X2661842Y1562747D01*
X2657307Y1573694D01*
X2650094Y1583094D01*
X2640694Y1590307D01*
X2629747Y1594842D01*
X2618000Y1596388D01*
D02*
G37*
G36*
X1494937Y1642500D02*
X1485063D01*
X1475525Y1639944D01*
X1466975Y1635007D01*
X1459993Y1628025D01*
X1455056Y1619475D01*
X1452500Y1609937D01*
Y1600063D01*
X1455056Y1590525D01*
X1459993Y1581975D01*
X1466975Y1574993D01*
X1475525Y1570056D01*
X1485063Y1567500D01*
X1494937D01*
X1504475Y1570056D01*
X1513025Y1574993D01*
X1520007Y1581975D01*
X1524944Y1590525D01*
X1527500Y1600063D01*
Y1609937D01*
X1524944Y1619475D01*
X1520007Y1628025D01*
X1513025Y1635007D01*
X1504475Y1639944D01*
X1494937Y1642500D01*
D02*
G37*
G36*
X818000Y1591345D02*
Y1556000D01*
X857687D01*
X856971Y1561442D01*
X852940Y1571173D01*
X846528Y1579528D01*
X838173Y1585940D01*
X828442Y1589970D01*
X818000Y1591345D01*
D02*
G37*
G36*
X857687Y1546000D02*
X818000D01*
Y1510655D01*
X828442Y1512030D01*
X838173Y1516060D01*
X846528Y1522472D01*
X852940Y1530827D01*
X856971Y1540558D01*
X857687Y1546000D01*
D02*
G37*
G36*
X718000Y1596388D02*
X708000D01*
X696253Y1594842D01*
X685306Y1590307D01*
X675906Y1583094D01*
X668693Y1573694D01*
X664158Y1562747D01*
X662612Y1551000D01*
X664158Y1539253D01*
X668693Y1528306D01*
X675906Y1518906D01*
X685306Y1511693D01*
X696253Y1507158D01*
X708000Y1505612D01*
X718000D01*
X729747Y1507158D01*
X740694Y1511693D01*
X750094Y1518906D01*
X757307Y1528306D01*
X761842Y1539253D01*
X762496Y1544220D01*
X768547D01*
X769029Y1540558D01*
X773060Y1530827D01*
X779472Y1522472D01*
X787827Y1516060D01*
X797558Y1512030D01*
X808000Y1510655D01*
Y1551000D01*
Y1591345D01*
X797558Y1589970D01*
X787827Y1585940D01*
X779472Y1579528D01*
X773060Y1571173D01*
X769029Y1561442D01*
X768547Y1557780D01*
X762496D01*
X761842Y1562747D01*
X757307Y1573694D01*
X750094Y1583094D01*
X740694Y1590307D01*
X729747Y1594842D01*
X718000Y1596388D01*
D02*
G37*
G36*
X2618000Y1496388D02*
X2608000D01*
X2596253Y1494842D01*
X2585306Y1490307D01*
X2575906Y1483094D01*
X2568693Y1473694D01*
X2566247Y1467791D01*
X2559753D01*
X2557307Y1473694D01*
X2550094Y1483094D01*
X2540694Y1490307D01*
X2529747Y1494842D01*
X2518000Y1496388D01*
X2508000D01*
X2496253Y1494842D01*
X2485306Y1490307D01*
X2475906Y1483094D01*
X2468693Y1473694D01*
X2464158Y1462747D01*
X2462612Y1451000D01*
X2464158Y1439253D01*
X2468693Y1428306D01*
X2475906Y1418906D01*
X2485306Y1411693D01*
X2496253Y1407158D01*
X2508000Y1405612D01*
X2518000D01*
X2529747Y1407158D01*
X2540694Y1411693D01*
X2550094Y1418906D01*
X2557307Y1428306D01*
X2559753Y1434209D01*
X2566247D01*
X2568693Y1428306D01*
X2575906Y1418906D01*
X2585306Y1411693D01*
X2596253Y1407158D01*
X2608000Y1405612D01*
X2618000D01*
X2629747Y1407158D01*
X2640694Y1411693D01*
X2650094Y1418906D01*
X2657307Y1428306D01*
X2661842Y1439253D01*
X2663388Y1451000D01*
X2661842Y1462747D01*
X2657307Y1473694D01*
X2650094Y1483094D01*
X2640694Y1490307D01*
X2629747Y1494842D01*
X2618000Y1496388D01*
D02*
G37*
G36*
X818000D02*
X808000D01*
X796253Y1494842D01*
X785306Y1490307D01*
X775906Y1483094D01*
X768693Y1473694D01*
X766247Y1467791D01*
X759753D01*
X757307Y1473694D01*
X750094Y1483094D01*
X740694Y1490307D01*
X729747Y1494842D01*
X718000Y1496388D01*
X708000D01*
X696253Y1494842D01*
X685306Y1490307D01*
X675906Y1483094D01*
X668693Y1473694D01*
X664158Y1462747D01*
X662612Y1451000D01*
X664158Y1439253D01*
X668693Y1428306D01*
X675906Y1418906D01*
X685306Y1411693D01*
X696253Y1407158D01*
X708000Y1405612D01*
X718000D01*
X729747Y1407158D01*
X740694Y1411693D01*
X750094Y1418906D01*
X757307Y1428306D01*
X759753Y1434209D01*
X766247D01*
X768693Y1428306D01*
X775906Y1418906D01*
X785306Y1411693D01*
X796253Y1407158D01*
X808000Y1405612D01*
X818000D01*
X829747Y1407158D01*
X840694Y1411693D01*
X850094Y1418906D01*
X857307Y1428306D01*
X861842Y1439253D01*
X863388Y1451000D01*
X861842Y1462747D01*
X857307Y1473694D01*
X850094Y1483094D01*
X840694Y1490307D01*
X829747Y1494842D01*
X818000Y1496388D01*
D02*
G37*
G36*
X251307Y1893480D02*
X238805D01*
X226729Y1890245D01*
X215902Y1883994D01*
X207062Y1875154D01*
X200811Y1864327D01*
X197576Y1852251D01*
Y1839749D01*
X200811Y1827673D01*
X207062Y1816846D01*
X215902Y1808006D01*
X226729Y1801755D01*
X236618Y1799106D01*
Y1792894D01*
X226729Y1790245D01*
X215902Y1783994D01*
X207062Y1775154D01*
X200811Y1764327D01*
X197576Y1752251D01*
Y1739749D01*
X200811Y1727673D01*
X207062Y1716846D01*
X215902Y1708006D01*
X226729Y1701755D01*
X236618Y1699106D01*
Y1692894D01*
X226729Y1690245D01*
X215902Y1683994D01*
X207062Y1675154D01*
X200811Y1664327D01*
X197576Y1652251D01*
Y1639749D01*
X200811Y1627673D01*
X207062Y1616846D01*
X215902Y1608006D01*
X226729Y1601755D01*
X236618Y1599106D01*
Y1592894D01*
X226729Y1590245D01*
X215902Y1583994D01*
X207062Y1575154D01*
X200811Y1564327D01*
X197576Y1552251D01*
Y1539749D01*
X200811Y1527673D01*
X207062Y1516846D01*
X215902Y1508006D01*
X226729Y1501755D01*
X236618Y1499106D01*
Y1492894D01*
X226729Y1490245D01*
X215902Y1483994D01*
X207062Y1475154D01*
X200811Y1464327D01*
X197576Y1452251D01*
Y1439749D01*
X200811Y1427673D01*
X207062Y1416846D01*
X215902Y1408006D01*
X226729Y1401755D01*
X238805Y1398520D01*
X251307D01*
X263383Y1401755D01*
X274210Y1408006D01*
X283050Y1416846D01*
X289301Y1427673D01*
X292536Y1439749D01*
Y1452251D01*
X289301Y1464327D01*
X283050Y1475154D01*
X274210Y1483994D01*
X263383Y1490245D01*
X253494Y1492894D01*
Y1499106D01*
X263383Y1501755D01*
X274210Y1508006D01*
X283050Y1516846D01*
X289301Y1527673D01*
X292536Y1539749D01*
Y1552251D01*
X289301Y1564327D01*
X283050Y1575154D01*
X274210Y1583994D01*
X263383Y1590245D01*
X253494Y1592894D01*
Y1599106D01*
X263383Y1601755D01*
X274210Y1608006D01*
X283050Y1616846D01*
X289301Y1627673D01*
X292536Y1639749D01*
Y1652251D01*
X289301Y1664327D01*
X283050Y1675154D01*
X274210Y1683994D01*
X263383Y1690245D01*
X253494Y1692894D01*
Y1699106D01*
X263383Y1701755D01*
X274210Y1708006D01*
X283050Y1716846D01*
X289301Y1727673D01*
X292536Y1739749D01*
Y1752251D01*
X289301Y1764327D01*
X283050Y1775154D01*
X274210Y1783994D01*
X263383Y1790245D01*
X253494Y1792894D01*
Y1799106D01*
X263383Y1801755D01*
X274210Y1808006D01*
X283050Y1816846D01*
X289301Y1827673D01*
X292536Y1839749D01*
Y1852251D01*
X289301Y1864327D01*
X283050Y1875154D01*
X274210Y1883994D01*
X263383Y1890245D01*
X251307Y1893480D01*
D02*
G37*
G36*
X2618000Y1396388D02*
X2608000D01*
X2596253Y1394842D01*
X2585306Y1390307D01*
X2575906Y1383094D01*
X2568693Y1373694D01*
X2566247Y1367791D01*
X2559753D01*
X2557307Y1373694D01*
X2550094Y1383094D01*
X2540694Y1390307D01*
X2529747Y1394842D01*
X2518000Y1396388D01*
X2508000D01*
X2496253Y1394842D01*
X2485306Y1390307D01*
X2475906Y1383094D01*
X2468693Y1373694D01*
X2464158Y1362747D01*
X2462612Y1351000D01*
X2464158Y1339253D01*
X2468693Y1328306D01*
X2475906Y1318906D01*
X2485306Y1311693D01*
X2496253Y1307158D01*
X2508000Y1305612D01*
X2518000D01*
X2529747Y1307158D01*
X2540694Y1311693D01*
X2550094Y1318906D01*
X2557307Y1328306D01*
X2559753Y1334209D01*
X2566247D01*
X2568693Y1328306D01*
X2575906Y1318906D01*
X2585306Y1311693D01*
X2596253Y1307158D01*
X2608000Y1305612D01*
X2618000D01*
X2629747Y1307158D01*
X2640694Y1311693D01*
X2650094Y1318906D01*
X2657307Y1328306D01*
X2661842Y1339253D01*
X2663388Y1351000D01*
X2661842Y1362747D01*
X2657307Y1373694D01*
X2650094Y1383094D01*
X2640694Y1390307D01*
X2629747Y1394842D01*
X2618000Y1396388D01*
D02*
G37*
G36*
X818000D02*
X808000D01*
X796253Y1394842D01*
X785306Y1390307D01*
X775906Y1383094D01*
X768693Y1373694D01*
X766247Y1367791D01*
X759753D01*
X757307Y1373694D01*
X750094Y1383094D01*
X740694Y1390307D01*
X729747Y1394842D01*
X718000Y1396388D01*
X708000D01*
X696253Y1394842D01*
X685306Y1390307D01*
X675906Y1383094D01*
X668693Y1373694D01*
X664158Y1362747D01*
X662612Y1351000D01*
X664158Y1339253D01*
X668693Y1328306D01*
X675906Y1318906D01*
X685306Y1311693D01*
X696253Y1307158D01*
X708000Y1305612D01*
X718000D01*
X729747Y1307158D01*
X740694Y1311693D01*
X750094Y1318906D01*
X757307Y1328306D01*
X759753Y1334209D01*
X766247D01*
X768693Y1328306D01*
X775906Y1318906D01*
X785306Y1311693D01*
X796253Y1307158D01*
X808000Y1305612D01*
X818000D01*
X829747Y1307158D01*
X840694Y1311693D01*
X850094Y1318906D01*
X857307Y1328306D01*
X861842Y1339253D01*
X863388Y1351000D01*
X861842Y1362747D01*
X857307Y1373694D01*
X850094Y1383094D01*
X840694Y1390307D01*
X829747Y1394842D01*
X818000Y1396388D01*
D02*
G37*
G36*
X250649Y1388480D02*
X250056D01*
Y1351000D01*
X287536D01*
Y1351593D01*
X284641Y1362397D01*
X279049Y1372083D01*
X271139Y1379993D01*
X261453Y1385585D01*
X250649Y1388480D01*
D02*
G37*
G36*
X240056D02*
X239463D01*
X228659Y1385585D01*
X218972Y1379993D01*
X211063Y1372083D01*
X205471Y1362397D01*
X202576Y1351593D01*
Y1351000D01*
X240056D01*
Y1388480D01*
D02*
G37*
G36*
X1214937Y1392500D02*
X1205063D01*
X1195525Y1389944D01*
X1186975Y1385007D01*
X1179993Y1378025D01*
X1175056Y1369475D01*
X1172500Y1359937D01*
Y1350063D01*
X1175056Y1340525D01*
X1179993Y1331975D01*
X1186975Y1324993D01*
X1195525Y1320056D01*
X1205063Y1317500D01*
X1214937D01*
X1224475Y1320056D01*
X1233025Y1324993D01*
X1240007Y1331975D01*
X1244944Y1340525D01*
X1247500Y1350063D01*
Y1359937D01*
X1244944Y1369475D01*
X1240007Y1378025D01*
X1233025Y1385007D01*
X1224475Y1389944D01*
X1214937Y1392500D01*
D02*
G37*
G36*
X287536Y1341000D02*
X250056D01*
Y1303520D01*
X250649D01*
X261453Y1306415D01*
X271139Y1312007D01*
X279049Y1319917D01*
X284641Y1329603D01*
X287536Y1340407D01*
Y1341000D01*
D02*
G37*
G36*
X240056D02*
X202576D01*
Y1340407D01*
X205471Y1329603D01*
X211063Y1319917D01*
X218972Y1312007D01*
X228659Y1306415D01*
X239463Y1303520D01*
X240056D01*
Y1341000D01*
D02*
G37*
G36*
X2829937Y1362500D02*
X2820063D01*
X2810526Y1359944D01*
X2801974Y1355007D01*
X2794992Y1348025D01*
X2790056Y1339475D01*
X2787500Y1329937D01*
Y1320063D01*
X2790056Y1310525D01*
X2794992Y1301975D01*
X2801974Y1294993D01*
X2810526Y1290056D01*
X2820063Y1287500D01*
X2829937D01*
X2839474Y1290056D01*
X2848026Y1294993D01*
X2855008Y1301975D01*
X2859944Y1310525D01*
X2862500Y1320063D01*
Y1329937D01*
X2859944Y1339475D01*
X2855008Y1348025D01*
X2848026Y1355007D01*
X2839474Y1359944D01*
X2829937Y1362500D01*
D02*
G37*
G36*
X2618000Y1296388D02*
X2608000D01*
X2596253Y1294842D01*
X2585306Y1290307D01*
X2575906Y1283094D01*
X2568693Y1273694D01*
X2566247Y1267791D01*
X2559753D01*
X2557307Y1273694D01*
X2550094Y1283094D01*
X2540694Y1290307D01*
X2529747Y1294842D01*
X2518000Y1296388D01*
X2508000D01*
X2496253Y1294842D01*
X2485306Y1290307D01*
X2475906Y1283094D01*
X2468693Y1273694D01*
X2464158Y1262747D01*
X2462612Y1251000D01*
X2464158Y1239253D01*
X2468693Y1228306D01*
X2475906Y1218906D01*
X2485306Y1211693D01*
X2496253Y1207158D01*
X2508000Y1205612D01*
X2518000D01*
X2529747Y1207158D01*
X2540694Y1211693D01*
X2550094Y1218906D01*
X2557307Y1228306D01*
X2559753Y1234209D01*
X2566247D01*
X2568693Y1228306D01*
X2575906Y1218906D01*
X2585306Y1211693D01*
X2596253Y1207158D01*
X2608000Y1205612D01*
X2618000D01*
X2629747Y1207158D01*
X2640694Y1211693D01*
X2650094Y1218906D01*
X2657307Y1228306D01*
X2661842Y1239253D01*
X2663388Y1251000D01*
X2661842Y1262747D01*
X2657307Y1273694D01*
X2650094Y1283094D01*
X2640694Y1290307D01*
X2629747Y1294842D01*
X2618000Y1296388D01*
D02*
G37*
G36*
X818000D02*
X808000D01*
X796253Y1294842D01*
X785306Y1290307D01*
X775906Y1283094D01*
X768693Y1273694D01*
X766247Y1267791D01*
X759753D01*
X757307Y1273694D01*
X750094Y1283094D01*
X740694Y1290307D01*
X729747Y1294842D01*
X718000Y1296388D01*
X708000D01*
X696253Y1294842D01*
X685306Y1290307D01*
X675906Y1283094D01*
X668693Y1273694D01*
X664158Y1262747D01*
X662612Y1251000D01*
X664158Y1239253D01*
X668693Y1228306D01*
X675906Y1218906D01*
X685306Y1211693D01*
X696253Y1207158D01*
X708000Y1205612D01*
X718000D01*
X729747Y1207158D01*
X740694Y1211693D01*
X750094Y1218906D01*
X757307Y1228306D01*
X759753Y1234209D01*
X766247D01*
X768693Y1228306D01*
X775906Y1218906D01*
X785306Y1211693D01*
X796253Y1207158D01*
X808000Y1205612D01*
X818000D01*
X829747Y1207158D01*
X840694Y1211693D01*
X850094Y1218906D01*
X857307Y1228306D01*
X861842Y1239253D01*
X863388Y1251000D01*
X861842Y1262747D01*
X857307Y1273694D01*
X850094Y1283094D01*
X840694Y1290307D01*
X829747Y1294842D01*
X818000Y1296388D01*
D02*
G37*
G36*
X3141251Y1727480D02*
X3128749D01*
X3116673Y1724245D01*
X3105846Y1717994D01*
X3097006Y1709154D01*
X3090755Y1698327D01*
X3087520Y1686251D01*
Y1673749D01*
X3090755Y1661673D01*
X3097006Y1650846D01*
X3105846Y1642006D01*
X3116673Y1635755D01*
X3126562Y1633106D01*
Y1626894D01*
X3116673Y1624245D01*
X3105846Y1617994D01*
X3097006Y1609154D01*
X3090755Y1598327D01*
X3087520Y1586251D01*
Y1573749D01*
X3090755Y1561673D01*
X3097006Y1550846D01*
X3105846Y1542006D01*
X3116673Y1535755D01*
X3126562Y1533106D01*
Y1526894D01*
X3116673Y1524245D01*
X3105846Y1517994D01*
X3097006Y1509154D01*
X3090755Y1498327D01*
X3087520Y1486251D01*
Y1473749D01*
X3090755Y1461673D01*
X3097006Y1450846D01*
X3105846Y1442006D01*
X3116673Y1435755D01*
X3126562Y1433106D01*
Y1426894D01*
X3116673Y1424245D01*
X3105846Y1417994D01*
X3097006Y1409154D01*
X3090755Y1398327D01*
X3087520Y1386251D01*
Y1373749D01*
X3090755Y1361673D01*
X3097006Y1350846D01*
X3105846Y1342006D01*
X3116673Y1335755D01*
X3126562Y1333106D01*
Y1326894D01*
X3116673Y1324245D01*
X3105846Y1317994D01*
X3097006Y1309154D01*
X3090755Y1298327D01*
X3087520Y1286251D01*
Y1273749D01*
X3090755Y1261673D01*
X3097006Y1250846D01*
X3105846Y1242006D01*
X3116673Y1235755D01*
X3128749Y1232520D01*
X3141251D01*
X3153327Y1235755D01*
X3164154Y1242006D01*
X3172994Y1250846D01*
X3179245Y1261673D01*
X3182480Y1273749D01*
Y1286251D01*
X3179245Y1298327D01*
X3172994Y1309154D01*
X3164154Y1317994D01*
X3153327Y1324245D01*
X3143438Y1326894D01*
Y1333106D01*
X3153327Y1335755D01*
X3164154Y1342006D01*
X3172994Y1350846D01*
X3179245Y1361673D01*
X3182480Y1373749D01*
Y1386251D01*
X3179245Y1398327D01*
X3172994Y1409154D01*
X3164154Y1417994D01*
X3153327Y1424245D01*
X3143438Y1426894D01*
Y1433106D01*
X3153327Y1435755D01*
X3164154Y1442006D01*
X3172994Y1450846D01*
X3179245Y1461673D01*
X3182480Y1473749D01*
Y1486251D01*
X3179245Y1498327D01*
X3172994Y1509154D01*
X3164154Y1517994D01*
X3153327Y1524245D01*
X3143438Y1526894D01*
Y1533106D01*
X3153327Y1535755D01*
X3164154Y1542006D01*
X3172994Y1550846D01*
X3179245Y1561673D01*
X3182480Y1573749D01*
Y1586251D01*
X3179245Y1598327D01*
X3172994Y1609154D01*
X3164154Y1617994D01*
X3153327Y1624245D01*
X3143438Y1626894D01*
Y1633106D01*
X3153327Y1635755D01*
X3164154Y1642006D01*
X3172994Y1650846D01*
X3179245Y1661673D01*
X3182480Y1673749D01*
Y1686251D01*
X3179245Y1698327D01*
X3172994Y1709154D01*
X3164154Y1717994D01*
X3153327Y1724245D01*
X3141251Y1727480D01*
D02*
G37*
G36*
X2269937Y1302500D02*
X2260063D01*
X2250526Y1299944D01*
X2241974Y1295007D01*
X2234992Y1288025D01*
X2230056Y1279475D01*
X2227500Y1269937D01*
Y1260063D01*
X2230056Y1250525D01*
X2234992Y1241975D01*
X2241974Y1234993D01*
X2250526Y1230056D01*
X2260063Y1227500D01*
X2269937D01*
X2279474Y1230056D01*
X2288026Y1234993D01*
X2295008Y1241975D01*
X2299944Y1250525D01*
X2302500Y1260063D01*
Y1269937D01*
X2299944Y1279475D01*
X2295008Y1288025D01*
X2288026Y1295007D01*
X2279474Y1299944D01*
X2269937Y1302500D01*
D02*
G37*
G36*
X2904937Y1292500D02*
X2895063D01*
X2885526Y1289944D01*
X2876974Y1285007D01*
X2869992Y1278025D01*
X2865056Y1269475D01*
X2862500Y1259937D01*
Y1250063D01*
X2865056Y1240525D01*
X2869992Y1231975D01*
X2876974Y1224993D01*
X2885526Y1220056D01*
X2895063Y1217500D01*
X2904937D01*
X2914474Y1220056D01*
X2923026Y1224993D01*
X2930008Y1231975D01*
X2934944Y1240525D01*
X2937500Y1250063D01*
Y1259937D01*
X2934944Y1269475D01*
X2930008Y1278025D01*
X2923026Y1285007D01*
X2914474Y1289944D01*
X2904937Y1292500D01*
D02*
G37*
G36*
X1294937D02*
X1285063D01*
X1275525Y1289944D01*
X1266975Y1285007D01*
X1259993Y1278025D01*
X1255056Y1269475D01*
X1252500Y1259937D01*
Y1250063D01*
X1255056Y1240525D01*
X1259993Y1231975D01*
X1266975Y1224993D01*
X1275525Y1220056D01*
X1285063Y1217500D01*
X1294937D01*
X1304475Y1220056D01*
X1313025Y1224993D01*
X1320007Y1231975D01*
X1324944Y1240525D01*
X1327500Y1250063D01*
Y1259937D01*
X1324944Y1269475D01*
X1320007Y1278025D01*
X1313025Y1285007D01*
X1304475Y1289944D01*
X1294937Y1292500D01*
D02*
G37*
G36*
X509937D02*
X500063D01*
X490526Y1289944D01*
X481974Y1285007D01*
X474993Y1278025D01*
X470056Y1269475D01*
X467500Y1259937D01*
Y1250063D01*
X470056Y1240525D01*
X474993Y1231975D01*
X481974Y1224993D01*
X490526Y1220056D01*
X500063Y1217500D01*
X509937D01*
X519475Y1220056D01*
X528025Y1224993D01*
X535008Y1231975D01*
X539944Y1240525D01*
X542500Y1250063D01*
Y1259937D01*
X539944Y1269475D01*
X535008Y1278025D01*
X528025Y1285007D01*
X519475Y1289944D01*
X509937Y1292500D01*
D02*
G37*
G36*
X2618000Y1196388D02*
X2608000D01*
X2596253Y1194842D01*
X2585306Y1190307D01*
X2575906Y1183094D01*
X2568693Y1173694D01*
X2566247Y1167791D01*
X2559753D01*
X2557307Y1173694D01*
X2550094Y1183094D01*
X2540694Y1190307D01*
X2529747Y1194842D01*
X2518000Y1196388D01*
X2508000D01*
X2496253Y1194842D01*
X2485306Y1190307D01*
X2475906Y1183094D01*
X2468693Y1173694D01*
X2464158Y1162747D01*
X2462612Y1151000D01*
X2464158Y1139253D01*
X2468693Y1128306D01*
X2475906Y1118906D01*
X2485306Y1111693D01*
X2496253Y1107158D01*
X2508000Y1105612D01*
X2518000D01*
X2529747Y1107158D01*
X2540694Y1111693D01*
X2550094Y1118906D01*
X2557307Y1128306D01*
X2559753Y1134209D01*
X2566247D01*
X2568693Y1128306D01*
X2575906Y1118906D01*
X2585306Y1111693D01*
X2596253Y1107158D01*
X2608000Y1105612D01*
X2618000D01*
X2629747Y1107158D01*
X2640694Y1111693D01*
X2650094Y1118906D01*
X2657307Y1128306D01*
X2661842Y1139253D01*
X2663388Y1151000D01*
X2661842Y1162747D01*
X2657307Y1173694D01*
X2650094Y1183094D01*
X2640694Y1190307D01*
X2629747Y1194842D01*
X2618000Y1196388D01*
D02*
G37*
G36*
X818000D02*
X808000D01*
X796253Y1194842D01*
X785306Y1190307D01*
X775906Y1183094D01*
X768693Y1173694D01*
X766247Y1167791D01*
X759753D01*
X757307Y1173694D01*
X750094Y1183094D01*
X740694Y1190307D01*
X729747Y1194842D01*
X718000Y1196388D01*
X708000D01*
X696253Y1194842D01*
X685306Y1190307D01*
X675906Y1183094D01*
X668693Y1173694D01*
X664158Y1162747D01*
X662612Y1151000D01*
X664158Y1139253D01*
X668693Y1128306D01*
X675906Y1118906D01*
X685306Y1111693D01*
X696253Y1107158D01*
X708000Y1105612D01*
X718000D01*
X729747Y1107158D01*
X740694Y1111693D01*
X750094Y1118906D01*
X757307Y1128306D01*
X759753Y1134209D01*
X766247D01*
X768693Y1128306D01*
X775906Y1118906D01*
X785306Y1111693D01*
X796253Y1107158D01*
X808000Y1105612D01*
X818000D01*
X829747Y1107158D01*
X840694Y1111693D01*
X850094Y1118906D01*
X857307Y1128306D01*
X861842Y1139253D01*
X863388Y1151000D01*
X861842Y1162747D01*
X857307Y1173694D01*
X850094Y1183094D01*
X840694Y1190307D01*
X829747Y1194842D01*
X818000Y1196388D01*
D02*
G37*
G36*
X251307Y1293480D02*
X238805D01*
X226729Y1290245D01*
X215902Y1283994D01*
X207062Y1275154D01*
X200811Y1264327D01*
X197576Y1252251D01*
Y1239749D01*
X200811Y1227673D01*
X207062Y1216846D01*
X215902Y1208006D01*
X226729Y1201755D01*
X234214Y1199750D01*
X233424Y1193750D01*
X228816D01*
X220661Y1192676D01*
X213061Y1189528D01*
X206535Y1184521D01*
X201528Y1177995D01*
X198380Y1170395D01*
X197306Y1162240D01*
Y1129760D01*
X198380Y1121605D01*
X201528Y1114005D01*
X206535Y1107479D01*
X213061Y1102472D01*
X220661Y1099324D01*
X228816Y1098250D01*
X261296D01*
X269451Y1099324D01*
X277051Y1102472D01*
X283577Y1107479D01*
X288584Y1114005D01*
X291732Y1121605D01*
X292806Y1129760D01*
Y1162240D01*
X291732Y1170395D01*
X288584Y1177995D01*
X283577Y1184521D01*
X277051Y1189528D01*
X269451Y1192676D01*
X261296Y1193750D01*
X256688D01*
X255898Y1199750D01*
X263383Y1201755D01*
X274210Y1208006D01*
X283050Y1216846D01*
X289301Y1227673D01*
X292536Y1239749D01*
Y1252251D01*
X289301Y1264327D01*
X283050Y1275154D01*
X274210Y1283994D01*
X263383Y1290245D01*
X251307Y1293480D01*
D02*
G37*
G36*
X2618000Y1096388D02*
X2608000D01*
X2596253Y1094842D01*
X2585306Y1090307D01*
X2575906Y1083094D01*
X2568693Y1073694D01*
X2564158Y1062747D01*
X2563504Y1057780D01*
X2557453D01*
X2556970Y1061442D01*
X2552940Y1071173D01*
X2546528Y1079528D01*
X2538173Y1085940D01*
X2528442Y1089970D01*
X2518000Y1091345D01*
Y1051000D01*
Y1010655D01*
X2528442Y1012029D01*
X2538173Y1016060D01*
X2546528Y1022472D01*
X2552940Y1030827D01*
X2556970Y1040558D01*
X2557453Y1044220D01*
X2563504D01*
X2564158Y1039253D01*
X2568693Y1028306D01*
X2575906Y1018906D01*
X2585306Y1011693D01*
X2596253Y1007158D01*
X2608000Y1005612D01*
X2618000D01*
X2629747Y1007158D01*
X2640694Y1011693D01*
X2650094Y1018906D01*
X2657307Y1028306D01*
X2661842Y1039253D01*
X2663388Y1051000D01*
X2661842Y1062747D01*
X2657307Y1073694D01*
X2650094Y1083094D01*
X2640694Y1090307D01*
X2629747Y1094842D01*
X2618000Y1096388D01*
D02*
G37*
G36*
X818000D02*
X808000D01*
X796253Y1094842D01*
X785306Y1090307D01*
X775906Y1083094D01*
X768693Y1073694D01*
X764158Y1062747D01*
X763504Y1057780D01*
X757453D01*
X756971Y1061442D01*
X752940Y1071173D01*
X746528Y1079528D01*
X738173Y1085940D01*
X728442Y1089970D01*
X718000Y1091345D01*
Y1051000D01*
Y1010655D01*
X728442Y1012029D01*
X738173Y1016060D01*
X746528Y1022472D01*
X752940Y1030827D01*
X756971Y1040558D01*
X757453Y1044220D01*
X763504D01*
X764158Y1039253D01*
X768693Y1028306D01*
X775906Y1018906D01*
X785306Y1011693D01*
X796253Y1007158D01*
X808000Y1005612D01*
X818000D01*
X829747Y1007158D01*
X840694Y1011693D01*
X850094Y1018906D01*
X857307Y1028306D01*
X861842Y1039253D01*
X863388Y1051000D01*
X861842Y1062747D01*
X857307Y1073694D01*
X850094Y1083094D01*
X840694Y1090307D01*
X829747Y1094842D01*
X818000Y1096388D01*
D02*
G37*
G36*
X2508000Y1091345D02*
X2497558Y1089970D01*
X2487827Y1085940D01*
X2479472Y1079528D01*
X2473060Y1071173D01*
X2469030Y1061442D01*
X2468313Y1056000D01*
X2508000D01*
Y1091345D01*
D02*
G37*
G36*
X708000D02*
X697558Y1089970D01*
X687827Y1085940D01*
X679472Y1079528D01*
X673060Y1071173D01*
X669029Y1061442D01*
X668313Y1056000D01*
X708000D01*
Y1091345D01*
D02*
G37*
G36*
X2508000Y1046000D02*
X2468313D01*
X2469030Y1040558D01*
X2473060Y1030827D01*
X2479472Y1022472D01*
X2487827Y1016060D01*
X2497558Y1012029D01*
X2508000Y1010655D01*
Y1046000D01*
D02*
G37*
G36*
X708000D02*
X668313D01*
X669029Y1040558D01*
X673060Y1030827D01*
X679472Y1022472D01*
X687827Y1016060D01*
X697558Y1012029D01*
X708000Y1010655D01*
Y1046000D01*
D02*
G37*
G36*
X2618000Y996388D02*
X2608000D01*
X2596253Y994842D01*
X2585306Y990307D01*
X2575906Y983094D01*
X2568693Y973694D01*
X2566247Y967790D01*
X2559753D01*
X2557307Y973694D01*
X2550094Y983094D01*
X2540694Y990307D01*
X2529747Y994842D01*
X2518000Y996388D01*
X2508000D01*
X2496253Y994842D01*
X2485306Y990307D01*
X2475906Y983094D01*
X2468693Y973694D01*
X2464158Y962747D01*
X2462612Y951000D01*
X2464158Y939253D01*
X2468693Y928306D01*
X2475906Y918906D01*
X2485306Y911693D01*
X2496253Y907158D01*
X2508000Y905612D01*
X2518000D01*
X2529747Y907158D01*
X2540694Y911693D01*
X2550094Y918906D01*
X2557307Y928306D01*
X2559753Y934210D01*
X2566247D01*
X2568693Y928306D01*
X2575906Y918906D01*
X2585306Y911693D01*
X2596253Y907158D01*
X2608000Y905612D01*
X2618000D01*
X2629747Y907158D01*
X2640694Y911693D01*
X2650094Y918906D01*
X2657307Y928306D01*
X2661842Y939253D01*
X2663388Y951000D01*
X2661842Y962747D01*
X2657307Y973694D01*
X2650094Y983094D01*
X2640694Y990307D01*
X2629747Y994842D01*
X2618000Y996388D01*
D02*
G37*
G36*
X818000D02*
X808000D01*
X796253Y994842D01*
X785306Y990307D01*
X775906Y983094D01*
X768693Y973694D01*
X766247Y967790D01*
X759753D01*
X757307Y973694D01*
X750094Y983094D01*
X740694Y990307D01*
X729747Y994842D01*
X718000Y996388D01*
X708000D01*
X696253Y994842D01*
X685306Y990307D01*
X675906Y983094D01*
X668693Y973694D01*
X664158Y962747D01*
X662612Y951000D01*
X664158Y939253D01*
X668693Y928306D01*
X675906Y918906D01*
X685306Y911693D01*
X696253Y907158D01*
X708000Y905612D01*
X718000D01*
X729747Y907158D01*
X740694Y911693D01*
X750094Y918906D01*
X757307Y928306D01*
X759753Y934210D01*
X766247D01*
X768693Y928306D01*
X775906Y918906D01*
X785306Y911693D01*
X796253Y907158D01*
X808000Y905612D01*
X818000D01*
X829747Y907158D01*
X840694Y911693D01*
X850094Y918906D01*
X857307Y928306D01*
X861842Y939253D01*
X863388Y951000D01*
X861842Y962747D01*
X857307Y973694D01*
X850094Y983094D01*
X840694Y990307D01*
X829747Y994842D01*
X818000Y996388D01*
D02*
G37*
G36*
X3154913Y936315D02*
X3145087D01*
X3136008Y932554D01*
X3129060Y925606D01*
X3125299Y916527D01*
Y906701D01*
X3129060Y897622D01*
X3136008Y890674D01*
X3145087Y886913D01*
X3154913D01*
X3163992Y890674D01*
X3170940Y897622D01*
X3174701Y906701D01*
Y916527D01*
X3170940Y925606D01*
X3163992Y932554D01*
X3154913Y936315D01*
D02*
G37*
G36*
X2618000Y896388D02*
X2608000D01*
X2596253Y894842D01*
X2585306Y890307D01*
X2575906Y883094D01*
X2568693Y873694D01*
X2566247Y867790D01*
X2559753D01*
X2557307Y873694D01*
X2550094Y883094D01*
X2540694Y890307D01*
X2529747Y894842D01*
X2518000Y896388D01*
X2508000D01*
X2496253Y894842D01*
X2485306Y890307D01*
X2475906Y883094D01*
X2468693Y873694D01*
X2464158Y862747D01*
X2462612Y851000D01*
X2464158Y839253D01*
X2468693Y828306D01*
X2475906Y818906D01*
X2485306Y811693D01*
X2496253Y807158D01*
X2508000Y805612D01*
X2518000D01*
X2529747Y807158D01*
X2540694Y811693D01*
X2550094Y818906D01*
X2557307Y828306D01*
X2559753Y834210D01*
X2566247D01*
X2568693Y828306D01*
X2575906Y818906D01*
X2585306Y811693D01*
X2596253Y807158D01*
X2608000Y805612D01*
X2618000D01*
X2629747Y807158D01*
X2640694Y811693D01*
X2650094Y818906D01*
X2657307Y828306D01*
X2661842Y839253D01*
X2663388Y851000D01*
X2661842Y862747D01*
X2657307Y873694D01*
X2650094Y883094D01*
X2640694Y890307D01*
X2629747Y894842D01*
X2618000Y896388D01*
D02*
G37*
G36*
X818000D02*
X808000D01*
X796253Y894842D01*
X785306Y890307D01*
X775906Y883094D01*
X768693Y873694D01*
X766247Y867790D01*
X759753D01*
X757307Y873694D01*
X750094Y883094D01*
X740694Y890307D01*
X729747Y894842D01*
X718000Y896388D01*
X708000D01*
X696253Y894842D01*
X685306Y890307D01*
X675906Y883094D01*
X668693Y873694D01*
X664158Y862747D01*
X662612Y851000D01*
X664158Y839253D01*
X668693Y828306D01*
X675906Y818906D01*
X685306Y811693D01*
X696253Y807158D01*
X708000Y805612D01*
X718000D01*
X729747Y807158D01*
X740694Y811693D01*
X750094Y818906D01*
X757307Y828306D01*
X759753Y834210D01*
X766247D01*
X768693Y828306D01*
X775906Y818906D01*
X785306Y811693D01*
X796253Y807158D01*
X808000Y805612D01*
X818000D01*
X829747Y807158D01*
X840694Y811693D01*
X850094Y818906D01*
X857307Y828306D01*
X861842Y839253D01*
X863388Y851000D01*
X861842Y862747D01*
X857307Y873694D01*
X850094Y883094D01*
X840694Y890307D01*
X829747Y894842D01*
X818000Y896388D01*
D02*
G37*
G36*
X3250937Y894500D02*
X3241063D01*
X3231526Y891944D01*
X3222974Y887008D01*
X3215992Y880025D01*
X3211056Y871475D01*
X3208500Y861937D01*
Y852063D01*
X3211056Y842525D01*
X3215992Y833975D01*
X3222974Y826992D01*
X3231526Y822056D01*
X3241063Y819500D01*
X3250937D01*
X3260474Y822056D01*
X3269026Y826992D01*
X3276008Y833975D01*
X3280944Y842525D01*
X3283500Y852063D01*
Y861937D01*
X3280944Y871475D01*
X3276008Y880025D01*
X3269026Y887008D01*
X3260474Y891944D01*
X3250937Y894500D01*
D02*
G37*
G36*
X2618000Y796388D02*
X2608000D01*
X2596253Y794842D01*
X2585306Y790307D01*
X2575906Y783094D01*
X2568693Y773694D01*
X2566247Y767790D01*
X2559753D01*
X2557307Y773694D01*
X2550094Y783094D01*
X2540694Y790307D01*
X2529747Y794842D01*
X2518000Y796388D01*
X2508000D01*
X2496253Y794842D01*
X2485306Y790307D01*
X2475906Y783094D01*
X2468693Y773694D01*
X2464158Y762747D01*
X2462612Y751000D01*
X2464158Y739253D01*
X2468693Y728306D01*
X2475906Y718906D01*
X2485306Y711693D01*
X2496253Y707158D01*
X2508000Y705612D01*
X2518000D01*
X2529747Y707158D01*
X2540694Y711693D01*
X2550094Y718906D01*
X2557307Y728306D01*
X2559753Y734210D01*
X2566247D01*
X2568693Y728306D01*
X2575906Y718906D01*
X2585306Y711693D01*
X2596253Y707158D01*
X2608000Y705612D01*
X2618000D01*
X2629747Y707158D01*
X2640694Y711693D01*
X2650094Y718906D01*
X2657307Y728306D01*
X2661842Y739253D01*
X2663388Y751000D01*
X2661842Y762747D01*
X2657307Y773694D01*
X2650094Y783094D01*
X2640694Y790307D01*
X2629747Y794842D01*
X2618000Y796388D01*
D02*
G37*
G36*
X818000D02*
X808000D01*
X796253Y794842D01*
X785306Y790307D01*
X775906Y783094D01*
X768693Y773694D01*
X766247Y767790D01*
X759753D01*
X757307Y773694D01*
X750094Y783094D01*
X740694Y790307D01*
X729747Y794842D01*
X718000Y796388D01*
X708000D01*
X696253Y794842D01*
X685306Y790307D01*
X675906Y783094D01*
X668693Y773694D01*
X664158Y762747D01*
X662612Y751000D01*
X664158Y739253D01*
X668693Y728306D01*
X675906Y718906D01*
X685306Y711693D01*
X696253Y707158D01*
X708000Y705612D01*
X718000D01*
X729747Y707158D01*
X740694Y711693D01*
X750094Y718906D01*
X757307Y728306D01*
X759753Y734210D01*
X766247D01*
X768693Y728306D01*
X775906Y718906D01*
X785306Y711693D01*
X796253Y707158D01*
X808000Y705612D01*
X818000D01*
X829747Y707158D01*
X840694Y711693D01*
X850094Y718906D01*
X857307Y728306D01*
X861842Y739253D01*
X863388Y751000D01*
X861842Y762747D01*
X857307Y773694D01*
X850094Y783094D01*
X840694Y790307D01*
X829747Y794842D01*
X818000Y796388D01*
D02*
G37*
G36*
X3154913Y763087D02*
X3145087D01*
X3136008Y759326D01*
X3129060Y752378D01*
X3125299Y743299D01*
Y733473D01*
X3129060Y724394D01*
X3136008Y717446D01*
X3145087Y713685D01*
X3154913D01*
X3163992Y717446D01*
X3170940Y724394D01*
X3174701Y733473D01*
Y743299D01*
X3170940Y752378D01*
X3163992Y759326D01*
X3154913Y763087D01*
D02*
G37*
G36*
X2618000Y696388D02*
X2608000D01*
X2596253Y694842D01*
X2585306Y690307D01*
X2575906Y683094D01*
X2568693Y673694D01*
X2566247Y667790D01*
X2559753D01*
X2557307Y673694D01*
X2550094Y683094D01*
X2540694Y690307D01*
X2529747Y694842D01*
X2518000Y696388D01*
X2508000D01*
X2496253Y694842D01*
X2485306Y690307D01*
X2475906Y683094D01*
X2468693Y673694D01*
X2464158Y662747D01*
X2462612Y651000D01*
X2464158Y639253D01*
X2468693Y628306D01*
X2475906Y618906D01*
X2485306Y611693D01*
X2496253Y607158D01*
X2508000Y605612D01*
X2518000D01*
X2529747Y607158D01*
X2540694Y611693D01*
X2550094Y618906D01*
X2557307Y628306D01*
X2559753Y634210D01*
X2566247D01*
X2568693Y628306D01*
X2575906Y618906D01*
X2585306Y611693D01*
X2596253Y607158D01*
X2608000Y605612D01*
X2618000D01*
X2629747Y607158D01*
X2640694Y611693D01*
X2650094Y618906D01*
X2657307Y628306D01*
X2661842Y639253D01*
X2663388Y651000D01*
X2661842Y662747D01*
X2657307Y673694D01*
X2650094Y683094D01*
X2640694Y690307D01*
X2629747Y694842D01*
X2618000Y696388D01*
D02*
G37*
G36*
X818000D02*
X808000D01*
X796253Y694842D01*
X785306Y690307D01*
X775906Y683094D01*
X768693Y673694D01*
X766247Y667790D01*
X759753D01*
X757307Y673694D01*
X750094Y683094D01*
X740694Y690307D01*
X729747Y694842D01*
X718000Y696388D01*
X708000D01*
X696253Y694842D01*
X685306Y690307D01*
X675906Y683094D01*
X668693Y673694D01*
X664158Y662747D01*
X662612Y651000D01*
X664158Y639253D01*
X668693Y628306D01*
X675906Y618906D01*
X685306Y611693D01*
X696253Y607158D01*
X708000Y605612D01*
X718000D01*
X729747Y607158D01*
X740694Y611693D01*
X750094Y618906D01*
X757307Y628306D01*
X759753Y634210D01*
X766247D01*
X768693Y628306D01*
X775906Y618906D01*
X785306Y611693D01*
X796253Y607158D01*
X808000Y605612D01*
X818000D01*
X829747Y607158D01*
X840694Y611693D01*
X850094Y618906D01*
X857307Y628306D01*
X861842Y639253D01*
X863388Y651000D01*
X861842Y662747D01*
X857307Y673694D01*
X850094Y683094D01*
X840694Y690307D01*
X829747Y694842D01*
X818000Y696388D01*
D02*
G37*
G36*
X1394937Y682500D02*
X1385063D01*
X1375525Y679944D01*
X1366975Y675008D01*
X1359993Y668025D01*
X1355056Y659475D01*
X1352500Y649937D01*
Y640063D01*
X1355056Y630525D01*
X1359993Y621975D01*
X1366975Y614992D01*
X1375525Y610056D01*
X1385063Y607500D01*
X1394937D01*
X1404475Y610056D01*
X1413025Y614992D01*
X1420007Y621975D01*
X1424944Y630525D01*
X1427500Y640063D01*
Y649937D01*
X1424944Y659475D01*
X1420007Y668025D01*
X1413025Y675008D01*
X1404475Y679944D01*
X1394937Y682500D01*
D02*
G37*
G36*
X1214937Y642500D02*
X1205063D01*
X1195525Y639944D01*
X1186975Y635008D01*
X1179993Y628025D01*
X1175056Y619475D01*
X1172500Y609937D01*
Y600063D01*
X1175056Y590525D01*
X1179993Y581975D01*
X1186975Y574992D01*
X1195525Y570056D01*
X1205063Y567500D01*
X1214937D01*
X1224475Y570056D01*
X1233025Y574992D01*
X1240007Y581975D01*
X1244944Y590525D01*
X1247500Y600063D01*
Y609937D01*
X1244944Y619475D01*
X1240007Y628025D01*
X1233025Y635008D01*
X1224475Y639944D01*
X1214937Y642500D01*
D02*
G37*
G36*
X989937Y632500D02*
X980063D01*
X970525Y629944D01*
X961975Y625008D01*
X954992Y618025D01*
X950056Y609475D01*
X947500Y599937D01*
Y590063D01*
X950056Y580525D01*
X954992Y571975D01*
X961975Y564992D01*
X970525Y560056D01*
X980063Y557500D01*
X989937D01*
X999475Y560056D01*
X1008025Y564992D01*
X1015008Y571975D01*
X1019944Y580525D01*
X1022500Y590063D01*
Y599937D01*
X1019944Y609475D01*
X1015008Y618025D01*
X1008025Y625008D01*
X999475Y629944D01*
X989937Y632500D01*
D02*
G37*
G36*
X3169937Y382500D02*
X3160063D01*
X3150526Y379944D01*
X3141974Y375007D01*
X3134992Y368026D01*
X3130056Y359474D01*
X3127500Y349937D01*
Y340063D01*
X3130056Y330526D01*
X3134992Y321974D01*
X3141974Y314993D01*
X3150526Y310056D01*
X3160063Y307500D01*
X3169937D01*
X3179474Y310056D01*
X3188026Y314993D01*
X3195008Y321974D01*
X3199944Y330526D01*
X3202500Y340063D01*
Y349937D01*
X3199944Y359474D01*
X3195008Y368026D01*
X3188026Y375007D01*
X3179474Y379944D01*
X3169937Y382500D01*
D02*
G37*
G36*
X2759937Y192500D02*
X2750063D01*
X2740526Y189944D01*
X2731974Y185007D01*
X2724992Y178025D01*
X2720056Y169475D01*
X2717500Y159937D01*
Y150063D01*
X2720056Y140525D01*
X2724992Y131975D01*
X2731974Y124993D01*
X2740526Y120056D01*
X2750063Y117500D01*
X2759937D01*
X2769474Y120056D01*
X2778026Y124993D01*
X2785008Y131975D01*
X2789944Y140525D01*
X2792500Y150063D01*
Y159937D01*
X2789944Y169475D01*
X2785008Y178025D01*
X2778026Y185007D01*
X2769474Y189944D01*
X2759937Y192500D01*
D02*
G37*
G36*
X3181747Y218500D02*
X3168253D01*
X3155019Y215868D01*
X3142553Y210704D01*
X3131334Y203207D01*
X3121793Y193666D01*
X3114296Y182447D01*
X3109133Y169981D01*
X3106500Y156747D01*
Y143253D01*
X3109133Y130019D01*
X3114296Y117553D01*
X3121793Y106334D01*
X3131334Y96793D01*
X3142553Y89296D01*
X3155019Y84132D01*
X3168253Y81500D01*
X3181747D01*
X3194981Y84132D01*
X3207447Y89296D01*
X3218666Y96793D01*
X3228207Y106334D01*
X3235704Y117553D01*
X3240867Y130019D01*
X3243500Y143253D01*
Y156747D01*
X3240867Y169981D01*
X3235704Y182447D01*
X3228207Y193666D01*
X3218666Y203207D01*
X3207447Y210704D01*
X3194981Y215868D01*
X3181747Y218500D01*
D02*
G37*
G36*
X156747D02*
X143253D01*
X130019Y215868D01*
X117553Y210704D01*
X106334Y203207D01*
X96793Y193666D01*
X89296Y182447D01*
X84132Y169981D01*
X81500Y156747D01*
Y143253D01*
X84132Y130019D01*
X89296Y117553D01*
X96793Y106334D01*
X106334Y96793D01*
X117553Y89296D01*
X130019Y84132D01*
X143253Y81500D01*
X156747D01*
X169981Y84132D01*
X182447Y89296D01*
X193666Y96793D01*
X203207Y106334D01*
X210704Y117553D01*
X215868Y130019D01*
X218500Y143253D01*
Y156747D01*
X215868Y169981D01*
X210704Y182447D01*
X203207Y193666D01*
X193666Y203207D01*
X182447Y210704D01*
X169981Y215868D01*
X156747Y218500D01*
D02*
G37*
G36*
X559937Y147500D02*
X550063D01*
X540525Y144944D01*
X531975Y140007D01*
X524992Y133025D01*
X520056Y124475D01*
X517500Y114937D01*
Y105063D01*
X520056Y95525D01*
X524992Y86975D01*
X531975Y79993D01*
X540525Y75056D01*
X550063Y72500D01*
X559937D01*
X569475Y75056D01*
X578025Y79993D01*
X585008Y86975D01*
X589944Y95525D01*
X592500Y105063D01*
Y114937D01*
X589944Y124475D01*
X585008Y133025D01*
X578025Y140007D01*
X569475Y144944D01*
X559937Y147500D01*
D02*
G37*
G36*
X2989937Y142500D02*
X2980063D01*
X2970526Y139944D01*
X2961974Y135007D01*
X2954992Y128025D01*
X2950056Y119475D01*
X2947500Y109937D01*
Y100063D01*
X2950056Y90525D01*
X2954992Y81975D01*
X2961974Y74993D01*
X2970526Y70056D01*
X2980063Y67500D01*
X2989937D01*
X2999474Y70056D01*
X3008026Y74993D01*
X3015008Y81975D01*
X3019944Y90525D01*
X3022500Y100063D01*
Y109937D01*
X3019944Y119475D01*
X3015008Y128025D01*
X3008026Y135007D01*
X2999474Y139944D01*
X2989937Y142500D01*
D02*
G37*
%LPD*%
D30*
X1826000Y2651000D02*
X2063000D01*
X1785000Y2610000D02*
X1826000Y2651000D01*
X1785000Y395000D02*
Y2610000D01*
X1815000Y365000D02*
X2790000D01*
X1785000Y395000D02*
X1815000Y365000D01*
D32*
X1163000Y3151000D02*
D03*
X2063000D02*
D03*
X1163000Y2751000D02*
D03*
X2063000Y2951000D02*
D03*
Y2751000D02*
D03*
X1163000Y3251000D02*
D03*
Y2851000D02*
D03*
X2063000Y3251000D02*
D03*
X1163000Y2951000D02*
D03*
X2063000Y3051000D02*
D03*
X1163000D02*
D03*
X2063000Y2851000D02*
D03*
X1163000Y2651000D02*
D03*
X2063000D02*
D03*
X1163000Y2551000D02*
D03*
D33*
X2063000D02*
D03*
D34*
X813000Y2151000D02*
D03*
X713000Y1651000D02*
D03*
X813000Y951000D02*
D03*
Y751000D02*
D03*
X2513000Y1851000D02*
D03*
X2613000Y851000D02*
D03*
X2513000Y751000D02*
D03*
X813000Y1851000D02*
D03*
X713000Y1551000D02*
D03*
X813000Y1051000D02*
D03*
X2513000Y1251000D02*
D03*
Y1751000D02*
D03*
X713000Y2051000D02*
D03*
Y851000D02*
D03*
Y2151000D02*
D03*
X2513000Y1051000D02*
D03*
X813000Y1551000D02*
D03*
X713000Y1051000D02*
D03*
Y1851000D02*
D03*
Y1251000D02*
D03*
X2613000D02*
D03*
X813000Y851000D02*
D03*
X2613000Y651000D02*
D03*
Y751000D02*
D03*
Y951000D02*
D03*
Y1051000D02*
D03*
Y1151000D02*
D03*
Y1351000D02*
D03*
Y1451000D02*
D03*
Y1551000D02*
D03*
Y1651000D02*
D03*
Y1751000D02*
D03*
Y1851000D02*
D03*
Y1951000D02*
D03*
Y2051000D02*
D03*
Y2151000D02*
D03*
X2513000Y651000D02*
D03*
Y851000D02*
D03*
Y951000D02*
D03*
Y1151000D02*
D03*
Y1351000D02*
D03*
Y1451000D02*
D03*
Y1551000D02*
D03*
Y1651000D02*
D03*
Y1951000D02*
D03*
Y2051000D02*
D03*
X813000Y651000D02*
D03*
Y1151000D02*
D03*
Y1251000D02*
D03*
Y1351000D02*
D03*
Y1451000D02*
D03*
Y1651000D02*
D03*
Y1751000D02*
D03*
Y1951000D02*
D03*
Y2051000D02*
D03*
X713000Y751000D02*
D03*
Y951000D02*
D03*
Y1151000D02*
D03*
Y1351000D02*
D03*
Y1451000D02*
D03*
Y1751000D02*
D03*
Y1951000D02*
D03*
X2513000Y2151000D02*
D03*
X713000Y651000D02*
D03*
D35*
X629000Y2659000D02*
D03*
X245056Y1246000D02*
D03*
Y1346000D02*
D03*
X629000Y2559000D02*
D03*
X3135000Y1380000D02*
D03*
Y1580000D02*
D03*
Y1680000D02*
D03*
Y1480000D02*
D03*
Y1280000D02*
D03*
X629000Y2859000D02*
D03*
Y2959000D02*
D03*
Y2759000D02*
D03*
X245056Y1846000D02*
D03*
Y1746000D02*
D03*
Y1446000D02*
D03*
Y1546000D02*
D03*
Y1646000D02*
D03*
D36*
X3180000Y2675000D02*
D03*
D37*
Y2775000D02*
D03*
D38*
X3150000Y911614D02*
D03*
Y738386D02*
D03*
D39*
X245056Y1146000D02*
D03*
D40*
X150000Y150000D02*
D03*
Y3750000D02*
D03*
X3175000Y150000D02*
D03*
Y3750000D02*
D03*
D41*
X1725000Y3150000D02*
D03*
X815000Y2415000D02*
D03*
X1915000Y3365000D02*
D03*
X455000D02*
D03*
X445000Y1650000D02*
D03*
X2790000Y365000D02*
D03*
X1735000Y3505000D02*
D03*
X1207000Y2293000D02*
D03*
X2265000Y1265000D02*
D03*
X985000Y595000D02*
D03*
X2850000Y3280000D02*
D03*
X2825000Y1325000D02*
D03*
X1855000Y1805000D02*
D03*
X505000Y1255000D02*
D03*
X2895000Y3325000D02*
D03*
X2900000Y1255000D02*
D03*
X2985000Y105000D02*
D03*
X555000Y110000D02*
D03*
X1705000Y2350000D02*
D03*
X2720000Y2460000D02*
D03*
X2755000Y155000D02*
D03*
X1390000Y645000D02*
D03*
X3165000Y345000D02*
D03*
X1490000Y1605000D02*
D03*
X1290000Y1255000D02*
D03*
X2720000Y2835000D02*
D03*
X1210000Y1355000D02*
D03*
Y605000D02*
D03*
X2345000Y2630000D02*
D03*
X2285000Y2800000D02*
D03*
X3246000Y857000D02*
D03*
X881000Y2859000D02*
D03*
X195000Y2760000D02*
D03*
%TF.MD5,043dc192b71cc6d6507b88d405c5f260*%
M02*
