M48
;Layer_Color=9474304
;FILE_FORMAT=2:5
INCH,LZ
;TYPE=PLATED
T01F00S00C0.02000
T02F00S00C0.03543
T03F00S00C0.04000
T04F00S00C0.04016
T05F00S00C0.04331
T06F00S00C0.12500
;TYPE=NON_PLATED
T07F00S00C0.03740
%
T01
X00555Y0011
X00985Y00595
X0121Y00605
X0139Y00645
X0279Y00365
X02755Y00155
X02985Y00105
X03165Y00345
X03246Y00857
X029Y01255
X02825Y01325
X02265Y01265
X01855Y01805
X0149Y01605
X0121Y01355
X0129Y01255
X00505
X00445Y0165
X00815Y02415
X00881Y02859
X00195Y0276
X00455Y03365
X01207Y02293
X01705Y0235
X01725Y0315
X01735Y03505
X01915Y03365
X02285Y028
X02345Y0263
X0272Y0246
Y02835
X0285Y0328
X02895Y03325
T02
X01163Y02551
Y02651
Y02751
Y02851
Y02951
Y03051
Y03151
Y03251
X02063
Y03151
Y03051
Y02951
Y02851
Y02751
Y02651
Y02551
T03
X00713Y00651
X00813
X02513
X02613
Y00751
Y00851
Y00951
Y01051
X02513
Y00951
Y00851
Y00751
Y01151
Y01251
X02613
Y01151
Y01351
Y01451
Y01551
Y01651
Y01751
X02513
Y01851
X02613
Y01951
Y02051
Y02151
X02513
Y02051
Y01951
Y01651
Y01551
Y01451
Y01351
X00813
Y01251
X00713
Y01151
Y01051
X00813
Y00951
Y00851
Y00751
X00713
Y00851
Y00951
X00813Y01151
Y01451
Y01551
X00713
Y01651
X00813
Y01751
Y01851
X00713
Y01751
Y01951
Y02051
Y02151
X00813
Y02051
Y01951
X00713Y01451
Y01351
T04
X0318Y02675
Y02775
T05
X03135Y0128
Y0138
Y0148
Y0158
Y0168
X0024506Y01646
Y01746
Y01846
Y01546
Y01446
Y01346
Y01246
Y01146
X00629Y02559
Y02659
Y02759
Y02859
Y02959
T06
X0015Y0015
X03175
X0015Y0375
X03175
T07
X0315Y0073839
Y0091161
M30
